<svg width="1007" height="787" viewBox="0 0 1007 787" fill="none" xmlns="http://www.w3.org/2000/svg">
<g id="undraw_basketball_agx4 1" clip-path="url(#clip0)">
<g id="hoop">
<path id="Vector" opacity="0.1" d="M886.29 364.07C897.73 387.56 890.45 421.26 906.65 440.46C918.53 454.54 938.25 454.46 951.72 466.34C962.2 475.61 967.42 490.78 972.17 505.18L995.25 575.18C1005.76 607.06 1014.74 648.1 993.57 671.47C980.88 685.47 961.71 687.06 944.38 685.57C818.95 674.78 718.06 548.28 593.06 531.95C504.71 520.4 417.42 565.84 328.56 563.33C281.56 562 235.67 547.33 190.32 532.69C155.44 521.46 116.73 506.69 100.1 468.83C92.67 451.91 90.36 431.47 79.32 417.56C70.86 406.89 58.63 401.84 48.12 394.11C2.34001 360.4 -2.90999 285 1.08001 221.51C3.29001 186.29 7.03001 150.23 20.96 118.97C34.89 87.71 61.1 61.86 91.02 60.84C109.94 60.19 128.02 69.21 146.43 74.25C164.84 79.29 186.43 79.44 200.25 64.25C211.59 51.78 215.15 31.75 226.49 19.25C235.32 9.53999 247.64 5.77 259.55 3.46C323.6 -8.96 391.83 12.6 442.06 61.12C454.27 72.91 465.9 86.51 480.82 92.56C500.69 100.61 522.41 93.79 543.42 93.96C617.54 94.56 667.81 174.78 720.05 225.35C750.59 254.92 780.13 261.29 813.27 280.99C833.78 293.19 873.92 338.68 886.29 364.07Z" fill="#6C63FF"/>
<path id="Vector_2" opacity="0.1" d="M303.22 744.54H259.22V749.54H303.22V744.54Z" fill="black"/>
<path id="Vector_3" opacity="0.3" d="M181.88 95.57L79.22 199.04V223.54L195.72 91.1L181.88 95.57Z" fill="white"/>
<path id="Vector_4" opacity="0.3" d="M217.31 85.62L79.22 260.54V286.47L251.76 80.48L217.31 85.62Z" fill="white"/>
<path id="Vector_5" d="M280.72 330.04C233.78 330.04 195.72 336.31 195.72 344.04C195.72 351.77 233.78 358.04 280.72 358.04C327.66 358.04 365.72 351.77 365.72 344.04C365.72 336.31 327.66 330.04 280.72 330.04ZM280.72 352.04C237.64 352.04 202.72 348.04 202.72 343.04C202.72 338.04 237.64 334.04 280.72 334.04C323.8 334.04 358.72 338.04 358.72 343.04C358.72 348.04 323.8 352.04 280.72 352.04Z" fill="#5F546F"/>
<path id="Vector_6" d="M353.1 802.76H212.47L262.41 771.17H300.11L353.1 802.76Z" fill="url(#paint0_linear)"/>
<path id="Vector_7" d="M61.66 146.87C61.66 146.87 251.22 -40.6 496.78 146.87V308.87C496.78 308.87 304.19 425.04 61.67 308.87L61.66 146.87Z" fill="url(#paint1_linear)"/>
<path id="Vector_8" d="M75.42 150.99C75.42 150.99 252.97 -24.65 483.02 150.99V302.77C483.02 302.77 302.61 411.59 75.42 302.77V150.99Z" fill="url(#paint2_linear)"/>
<path id="Vector_9" d="M332.71 240.62H224.7V332.33H332.71V240.62Z" fill="url(#paint3_linear)"/>
<path id="Vector_10" d="M323.54 248.4H233.87V324.54H323.54V248.4Z" fill="url(#paint4_linear)"/>
<g id="Group" opacity="0.1">
<path id="Vector_11" opacity="0.1" d="M316.51 472.1L282.44 413.4L252.22 470.04L226 410.68L198.72 471.12L197.77 470.74C208.77 438.62 197.86 347.57 197.77 346.65L197.35 343.24L226.03 408.17L249.94 355.17L282.47 411.24L312.22 355.4L337.42 412.91L361.88 347.14L368 345.92L367.86 346.66C367.68 347.6 350.97 435.66 360.47 465.52L362.73 470.68L361.83 471.15C360.853 469.483 360.074 467.708 359.51 465.86L337.51 415.63L316.51 472.1ZM283 412.31L316.3 469.72L336.91 414.31L312.13 357.76L283 412.31ZM226.52 409.4L252.22 467.71L281.8 412.33L249.99 357.4L226.52 409.4ZM199.1 349.84C200.84 365.52 207.61 432.41 200.45 464.69L225.45 409.4L199.1 349.84ZM338.02 414.29L358.09 460.09C351.99 427.49 365.09 355.98 366.73 347.24L362.66 348.05L338.02 414.29Z" fill="url(#paint5_linear)"/>
</g>
<g id="Group_2" opacity="0.1">
<path id="Vector_12" opacity="0.1" d="M227.74 472.23L202.46 408.94L203.41 408.56L227.79 469.56L252.22 413.81L219.65 353.97L220.54 353.48L252.73 412.63L277.14 356.95H277.44L349.92 350.1L282.78 469.93L252.85 414.93L227.74 472.23ZM253.37 413.76L282.79 467.82L348.1 351.27L277.86 357.91L253.37 413.76Z" fill="url(#paint6_linear)"/>
</g>
<g id="Group_3" opacity="0.1">
<path id="Vector_13" opacity="0.1" d="M335.84 469.09L335.32 468.09L275.2 351.92L276.11 351.45L335.71 466.61L358.11 408.57L359.06 408.94L335.84 469.09Z" fill="url(#paint7_linear)"/>
</g>
<path id="Vector_14" d="M280.75 331.31C232.91 331.31 194.14 337.7 194.14 345.58C194.14 353.46 232.92 359.85 280.75 359.85C328.58 359.85 367.36 353.46 367.36 345.58C367.36 337.7 328.58 331.31 280.75 331.31ZM280.75 353.73C236.85 353.73 201.27 349.62 201.27 344.56C201.27 339.5 236.85 335.4 280.75 335.4C324.65 335.4 360.22 339.49 360.22 344.56C360.22 349.63 324.64 353.73 280.75 353.73V353.73Z" fill="url(#paint8_linear)"/>
<g id="Group_4" opacity="0.2">
<path id="Vector_15" opacity="0.2" d="M280.75 331.31C232.91 331.31 194.14 337.7 194.14 345.58C194.14 353.46 232.92 359.85 280.75 359.85C328.58 359.85 367.36 353.46 367.36 345.58C367.36 337.7 328.58 331.31 280.75 331.31ZM280.75 353.73C236.85 353.73 201.27 349.62 201.27 344.56C201.27 339.5 236.85 335.4 280.75 335.4C324.65 335.4 360.22 339.49 360.22 344.56C360.22 349.63 324.64 353.73 280.75 353.73V353.73Z" fill="url(#paint9_linear)"/>
</g>
<path id="Vector_16" d="M280.75 328.26C232.91 328.26 194.14 334.65 194.14 342.53C194.14 350.41 232.92 356.8 280.75 356.8C328.58 356.8 367.36 350.41 367.36 342.53C367.36 334.65 328.58 328.26 280.75 328.26ZM280.75 350.68C236.85 350.68 201.27 346.57 201.27 341.51C201.27 336.45 236.86 332.34 280.75 332.34C324.64 332.34 360.22 336.4 360.22 341.5C360.22 346.6 324.64 350.67 280.75 350.67V350.68Z" fill="url(#paint10_linear)"/>
<path id="Vector_17" d="M304 358H260V878H304V358Z" fill="#E8EAF1"/>
<path id="Vector_18" d="M351.72 796.04H213.72L262.72 765.04H299.72L351.72 796.04Z" fill="#E8EAF1"/>
<path id="Vector_19" d="M65.72 152.04C65.72 152.04 251.72 -31.96 492.72 152.04V311.04C492.72 311.04 303.72 425.04 65.72 311.04V152.04Z" fill="#E8EAF1"/>
<path id="Vector_20" d="M79.22 156.09C79.22 156.09 253.46 -16.28 479.22 156.09V305.03C479.22 305.03 302.22 411.82 79.22 305.03V156.09Z" fill="#F3F5F7"/>
<path id="Vector_21" d="M331.72 244.04H225.72V334.04H331.72V244.04Z" fill="white"/>
<path id="Vector_22" d="M322.72 251.68H234.72V326.4H322.72V251.68Z" fill="#F3F5F7"/>
<path id="Vector_23" opacity="0.1" d="M315.82 471.21L282.38 413.57L252.67 469.18L226.94 410.93L200.22 470.25L199.29 469.88C210.13 438.35 199.38 349 199.29 348.1L198.88 344.75L227.03 408.47L250.5 356.47L282.42 411.47L311.69 356.67L336.42 413.11L360.42 348.56L366.42 347.36L366.28 348.09C366.1 349.02 349.7 435.43 359.03 464.74L361.25 469.8L360.36 470.26C359.4 468.625 358.635 466.883 358.08 465.07L336.48 415.77L315.82 471.21ZM282.94 412.53L315.62 468.87L335.84 414.5L311.53 359L282.94 412.53ZM227.5 409.71L252.76 466.91L281.76 412.56L250.51 358.68L227.5 409.71ZM200.59 351.26C202.3 366.64 208.94 432.26 201.91 463.97L226.4 409.71L200.59 351.26ZM336.92 414.47L356.61 459.4C350.61 427.4 363.47 357.23 365.09 348.66L361.09 349.46L336.92 414.47Z" fill="black"/>
<path id="Vector_24" opacity="0.1" d="M228.7 471.34L203.89 409.23L204.82 408.86L228.75 468.75L252.75 414.01L220.75 355.29L221.63 354.81L253.22 412.81L277.22 358.17H277.51L348.64 351.45L282.71 469.08L253.34 415.08L228.7 471.34ZM253.85 413.96L282.72 467.01L346.82 352.63L277.89 359.14L253.85 413.96Z" fill="black"/>
<path id="Vector_25" opacity="0.1" d="M334.79 468.26L334.27 467.27L275.27 353.27L276.16 352.81L334.65 465.82L356.64 408.86L357.57 409.22L334.79 468.26Z" fill="black"/>
<path id="Vector_26" d="M280.72 333.04C233.78 333.04 195.72 339.31 195.72 347.04C195.72 354.77 233.78 361.04 280.72 361.04C327.66 361.04 365.72 354.77 365.72 347.04C365.72 339.31 327.66 333.04 280.72 333.04ZM280.72 355.04C237.64 355.04 202.72 351.04 202.72 346.04C202.72 341.04 237.64 337.04 280.72 337.04C323.8 337.04 358.72 341.04 358.72 346.04C358.72 351.04 323.8 355.04 280.72 355.04Z" fill="#5F546F"/>
<path id="Vector_27" opacity="0.2" d="M280.72 333.04C233.78 333.04 195.72 339.31 195.72 347.04C195.72 354.77 233.78 361.04 280.72 361.04C327.66 361.04 365.72 354.77 365.72 347.04C365.72 339.31 327.66 333.04 280.72 333.04ZM280.72 355.04C237.64 355.04 202.72 351.04 202.72 346.04C202.72 341.04 237.64 337.04 280.72 337.04C323.8 337.04 358.72 341.04 358.72 346.04C358.72 351.04 323.8 355.04 280.72 355.04Z" fill="black"/>
<g id="player">
<path id="Vector_28" d="M743.282 850.559C734.363 849.285 717.875 835.269 717.875 835.269C716.68 833.482 715.046 832.032 713.13 831.057C711.213 830.082 709.079 829.615 706.93 829.701L690.558 806.677C684.211 795.771 676.682 785.597 668.107 776.339C666.705 774.785 665.257 773.277 663.762 771.816C659.346 767.425 654.601 763.379 649.568 759.711C646.257 757.242 643.131 754.534 640.216 751.608C637.52 748.924 634.969 746.1 632.571 743.147L621.18 727.195L620.415 726.112C620.706 724.554 620.783 722.964 620.645 721.385C620.645 721.015 620.568 720.646 620.517 720.276L573.501 665.003L559.485 636.411C559.319 636.551 558.759 637.023 557.88 637.685L557.625 636.959V636.628V634.22C557.553 614.429 562.466 594.938 571.908 577.545C575.079 571.706 576.739 565.167 576.737 558.522C576.737 557.987 576.737 557.452 576.737 556.917L576.495 556.649C576.049 556.152 575.03 555.005 573.717 553.311C573.883 552.979 574.061 552.635 574.227 552.317C580.063 541.588 588.179 539.754 588.179 539.754C615.497 535.931 635.195 517.52 635.195 517.52C655.582 506.052 651.759 495.859 651.759 495.859L633.335 451.391L621.868 427.883L618.695 417.078C617.656 409.891 616.188 402.773 614.299 395.761C611.585 385.415 598.066 382.472 591.543 390.945C591.39 391.149 591.224 391.365 591.071 391.595C588.183 395.769 586.956 400.87 587.63 405.901C588.304 410.932 590.83 415.531 594.715 418.798C601.086 424.226 606.629 429.794 606.629 429.794C618.096 432.966 625.741 492.049 625.741 492.049L618.096 497.146C612.233 497.45 606.497 498.966 601.249 501.597C596.002 504.229 591.356 507.919 587.606 512.436H563.626C563.626 512.334 563.69 512.232 563.728 512.117L559.753 511.225L548.285 508.677L544.042 507.721L543.979 507.989L542.781 507.721V507.887C541.17 505.335 539.723 502.684 538.449 499.949C538.791 500.001 539.139 500.001 539.481 499.949C539.57 499.758 539.646 499.567 539.71 499.376H540.118C541.889 495.553 540.36 490.775 542.067 486.876C542.989 485.231 544.01 483.644 545.125 482.123C547.674 477.728 547.368 472.223 546.616 467.178C545.801 461.75 544.552 456.207 541.43 451.684C538.309 447.161 532.919 443.848 527.414 444.561C523.082 445.135 519.285 448.103 514.928 448.384C511.844 448.562 508.888 447.352 506.009 446.409C502.856 445.393 499.62 444.656 496.338 444.205C494.159 443.899 491.598 443.861 490.133 445.479L490.005 445.644C489.821 445.785 489.65 445.943 489.496 446.116C488.92 446.834 488.488 447.656 488.221 448.537L485.405 456.296C485.26 456.56 485.184 456.856 485.184 457.156C485.184 457.457 485.26 457.753 485.405 458.016C485.66 458.335 486.106 458.424 486.45 458.641C488.68 460.081 485.686 463.635 487.533 465.381C488.642 466.426 491.012 466.541 493.356 466.528C491.223 469.889 489.932 473.715 489.592 477.681C489.251 481.647 489.872 485.637 491.401 489.313C492.93 492.988 495.322 496.241 498.375 498.795C501.428 501.35 505.052 503.131 508.939 503.988C508.939 504.409 508.939 504.829 508.939 505.262C509 508.622 508.735 511.981 508.149 515.29V515.29L506.289 515.455C503.193 515.621 496.937 515.863 491.47 515.608C489.64 515.536 487.815 515.361 486.004 515.086C486.004 515.086 485.788 517.405 485.367 520.96L484.093 521.317C472.21 524.731 461.891 532.184 454.915 542.391L426.323 558.955C426.323 558.955 413.581 555.783 376.771 587.547L350.09 601.563C350.09 601.563 309.33 613.566 316.949 625.619C324.569 637.673 362.691 611.017 362.691 611.017L377.981 604.035L424.361 583.648C424.361 583.648 439.651 573.455 451.041 569.633C462.432 565.81 473.913 554.343 473.913 554.343L476.779 554.19L478.054 554.113C477.864 554.456 477.655 554.788 477.429 555.107C477.315 555.286 477.187 555.451 477.06 555.604V657.881L476.856 660.722H476.945L473.887 702.323C473.887 702.323 474.524 721.436 471.976 732.177C469.428 742.918 473.887 786.813 473.887 786.813C473.887 786.813 475.556 786.813 478.27 786.622L478.194 787.896L477.072 805.874C477.072 805.874 474.932 812.806 487.266 816.411C490.09 817.23 492.778 818.462 495.242 820.068L509.462 829.382L524.076 838.302L527.032 844.507L527.172 844.812L524.063 842.914C524.063 842.914 521.515 849.285 529.784 857.528C532.881 860.299 535.297 863.746 536.844 867.603C538.391 871.459 539.027 875.62 538.703 879.763C538.703 879.763 539.978 895.052 547.623 891.23C547.623 891.23 559.689 888.682 559.09 867.722C559.09 867.722 554.274 850.266 559.88 842.888C560.033 842.685 560.194 842.489 560.364 842.302C566.735 835.32 558.453 824.464 558.453 824.464C558.453 824.464 543.736 818.527 542.908 828.389L542.297 828.121C539.646 826.847 534.894 823.751 529.861 816.208C529.861 816.208 521.604 795.248 508.901 793.337L511.029 781.27L511.271 779.881C515.641 777.817 519.183 775.154 520.967 771.727L521.044 771.574V771.51V771.421V771.332V771.243L521.107 771.115V771.013L521.171 770.873L521.248 770.72V770.593L521.337 770.414L521.579 770.287L521.668 770.096L521.744 769.93L521.846 769.714L521.936 769.535L522.037 769.319L522.152 769.089L522.241 768.911L522.369 768.643L522.458 768.465L523.006 767.28L523.082 767.127L523.235 766.796L523.35 766.554L523.516 766.184L523.617 765.968L523.809 765.534L523.885 765.356L524.089 764.91L524.191 764.693L524.395 764.235L524.484 764.031L524.701 763.547L524.79 763.356L525.019 762.846L525.095 762.655L525.325 762.12L525.401 761.941L525.656 761.368V761.266C529.721 751.812 534.83 738.216 534.575 730.164C534.609 729.523 534.609 728.881 534.575 728.24H534.422V728.112C534.422 727.845 534.32 727.59 534.244 727.348L568.544 734.993L588.931 757.227H589.02H589.096H589.186H589.288H589.389L589.517 757.163H589.632L589.797 757.087L589.925 757.023L590.103 756.934L590.256 756.857L590.473 756.743L590.613 756.666L590.855 756.539L591.008 756.45L591.262 756.322L591.441 756.22L591.721 756.067L591.9 755.978L592.193 755.813L592.397 755.698L592.715 755.519L592.932 754.997L593.288 754.793L593.48 754.691L593.849 754.487L594.066 754.36L594.448 754.143L594.652 754.016L595.059 753.774L595.276 753.646L595.697 753.392L595.9 753.264L596.346 752.997H596.423L597.136 753.825L606.055 764.171C614.975 767.993 635.285 787.042 635.285 787.042C637.629 792.661 647.555 800.688 652.626 804.536C654.076 805.608 655.615 806.555 657.226 807.365C660.003 808.805 663.915 812.232 667.495 815.698C672.167 820.316 677.18 824.575 682.492 828.44C687.404 832.185 691.774 836.593 695.476 841.538V841.538L695.909 842.098C692.877 852.292 710.231 862.651 710.231 862.651C716.601 861.376 736.274 879.215 736.274 879.215C736.274 879.215 754.699 893.829 762.318 877.941C769.938 862.052 743.282 850.559 743.282 850.559ZM709.619 833.536L707.071 829.93C707.763 830.256 708.358 830.756 708.798 831.382C709.238 832.007 709.508 832.737 709.581 833.498L709.619 833.536Z" fill="url(#paint11_linear)"/>
<path id="Vector_29" d="M551.177 521.635C551.177 521.635 486.896 559.082 500.632 537.855C506.572 528.914 509.68 518.391 509.551 507.658C509.548 504.153 509.077 500.665 508.149 497.286L534.983 484.799C534.518 488.475 534.848 492.207 535.951 495.744C539.71 509.021 551.177 521.635 551.177 521.635Z" fill="#EBC9A9"/>
<path id="Vector_30" opacity="0.1" d="M535.913 495.757C533.366 500.306 529.428 503.919 524.675 506.063C519.923 508.207 514.609 508.771 509.513 507.67C509.51 504.166 509.039 500.678 508.111 497.299L534.945 484.812C534.48 488.487 534.81 492.22 535.913 495.757V495.757Z" fill="black"/>
<path id="Vector_31" d="M514.673 506.97C528.113 506.97 539.009 496.074 539.009 482.633C539.009 469.193 528.113 458.297 514.673 458.297C501.232 458.297 490.336 469.193 490.336 482.633C490.336 496.074 501.232 506.97 514.673 506.97Z" fill="#EBC9A9"/>
<path id="Vector_32" opacity="0.1" d="M499.115 469.688C501.467 470.169 503.543 471.538 504.913 473.51C506.518 476.058 506.48 479.55 508.735 481.537C510.437 482.795 512.564 483.335 514.66 483.041C516.731 482.74 518.829 482.667 520.916 482.824C524.293 483.372 527.058 485.869 528.931 488.724C530.634 491.683 532.149 494.747 533.467 497.898C534.005 499.147 534.775 500.284 535.735 501.249C536.219 501.727 536.81 502.084 537.459 502.292C538.107 502.5 538.795 502.553 539.468 502.446C541.213 498.624 539.71 493.986 541.379 490.176C542.282 488.562 543.282 487.005 544.373 485.513C546.922 481.193 546.578 475.791 545.826 470.834C545.023 465.496 543.8 460.055 540.729 455.621C537.659 451.187 532.371 447.976 527.019 448.626C522.764 449.186 519.03 452.104 514.749 452.359C511.73 452.538 508.812 451.353 505.932 450.422C502.837 449.425 499.661 448.7 496.44 448.256C494.299 447.963 491.789 447.912 490.349 449.53C489.777 450.232 489.344 451.036 489.075 451.9L486.31 459.545C486.167 459.805 486.092 460.096 486.092 460.393C486.092 460.689 486.167 460.98 486.31 461.24C486.565 461.546 486.998 461.635 487.329 461.864C489.521 463.279 486.578 466.77 488.387 468.49C490.196 470.21 496.58 469.089 499.115 469.688Z" fill="black"/>
<path id="Vector_33" d="M499.74 469.063C502.092 469.545 504.168 470.914 505.537 472.886C507.143 475.434 507.104 478.925 509.36 480.913C511.061 482.171 513.189 482.711 515.284 482.417C517.356 482.115 519.453 482.043 521.54 482.2C524.917 482.748 527.682 485.245 529.555 488.099C531.258 491.059 532.773 494.123 534.091 497.273C534.63 498.523 535.399 499.66 536.359 500.624C536.844 501.102 537.434 501.46 538.083 501.668C538.731 501.876 539.42 501.929 540.092 501.822C541.838 497.999 540.334 493.362 542.004 489.552C542.906 487.938 543.906 486.381 544.998 484.888C547.546 480.569 547.202 475.167 546.45 470.21C545.648 464.871 544.424 459.431 541.354 454.997C538.283 450.563 532.995 447.352 527.644 448.002C523.388 448.562 519.655 451.48 515.374 451.735C512.354 451.913 509.436 450.728 506.556 449.798C503.462 448.801 500.285 448.076 497.064 447.632C494.923 447.339 492.413 447.288 490.973 448.906C490.401 449.607 489.969 450.412 489.699 451.276L486.934 458.921C486.792 459.181 486.717 459.472 486.717 459.768C486.717 460.065 486.792 460.356 486.934 460.616C487.189 460.921 487.622 461.011 487.954 461.24C490.145 462.654 487.202 466.146 489.011 467.866C490.821 469.586 497.204 468.464 499.74 469.063Z" fill="#472727"/>
<path id="Vector_34" d="M633.397 519.205C633.397 519.205 614.145 537.675 587.436 541.499C587.436 541.499 579.497 543.346 573.79 554.103C571.711 558.146 570.236 562.487 569.415 566.98L540.753 517.175L538.978 514.093H586.802C590.474 509.572 595.019 505.88 600.15 503.25C605.282 500.619 610.889 499.107 616.618 498.809L624.075 493.71C624.075 493.71 616.618 434.462 605.445 431.275C605.445 431.275 599.992 425.682 593.79 420.245C589.983 416.967 587.507 412.349 586.848 407.296C586.188 402.243 587.393 397.119 590.227 392.93C590.379 392.709 590.531 392.488 590.696 392.28C597.037 383.786 610.29 386.738 612.953 397.118C614.803 404.169 616.238 411.327 617.252 418.554L620.359 429.389L631.545 452.958L649.554 497.547C649.554 497.547 653.27 507.745 633.397 519.205Z" fill="#EBC9A9"/>
<path id="Vector_35" d="M490.018 522.259L486.272 555.387L477.85 555.859L475.034 556.012C475.034 556.012 463.796 567.25 452.57 570.983C441.345 574.716 426.361 584.719 426.361 584.719L380.81 604.646L365.839 611.514C365.839 611.514 328.391 637.775 320.899 625.861C313.407 613.948 353.39 602.098 353.39 602.098L379.599 588.363C415.798 557.159 428.272 560.331 428.272 560.331L456.304 544.111C463.154 534.084 473.289 526.762 484.959 523.406C486.615 522.9 488.306 522.517 490.018 522.259Z" fill="#EBC9A9"/>
<path id="Vector_36" opacity="0.1" d="M573.666 553.948C571.577 557.908 570.095 562.161 569.27 566.562L540.475 517.774C541.161 516.823 541.762 515.812 542.271 514.755C543.008 513.26 543.589 511.693 544.004 510.078L548.17 511.021L559.447 513.57L563.358 514.449C563.358 514.551 563.282 514.653 563.256 514.755C558.007 530.172 567.907 546.316 573.666 553.948Z" fill="black"/>
<path id="Vector_37" opacity="0.1" d="M490.018 522.259L486.272 555.387L477.85 555.859C481.43 549.488 483.864 532.618 484.972 523.457C486.622 522.935 488.309 522.534 490.018 522.259V522.259Z" fill="black"/>
<path id="Vector_38" d="M571.398 578.106C562.036 595.353 557.213 614.698 557.383 634.322V636.768V637.087C557.383 637.087 564.25 655.804 557.383 655.804C550.515 655.804 551.139 665.169 542.411 667.042C533.683 668.915 503.091 682.013 493.738 676.407C484.386 670.801 478.143 658.938 478.143 658.938V557.21C478.27 557.057 478.398 556.891 478.512 556.713C483.902 549.068 486.883 517.214 486.883 517.214C488.665 517.488 490.46 517.662 492.26 517.736C497.625 517.991 503.728 517.736 506.811 517.583L508.722 517.469C514.112 521.686 521.464 522.298 525.108 522.298C526.387 522.303 527.665 522.396 528.931 522.578C539.468 524.056 542.679 510.053 542.679 510.053L546.845 510.996L558.122 513.544L562.033 514.423C555.013 534.313 573.501 555.579 575.832 558.153L576.074 558.42C576.273 565.279 574.66 572.069 571.398 578.106Z" fill="#6C63FF"/>
<path id="Vector_39" opacity="0.3" d="M519.973 563.759C511.182 563.759 504.059 573.952 504.059 586.541C504.059 599.129 511.182 609.323 519.973 609.323C528.765 609.323 535.888 599.129 535.888 586.541C535.888 573.952 528.765 563.759 519.973 563.759ZM519.973 599.958C514.8 599.958 510.596 593.956 510.596 586.541C510.596 579.125 514.787 573.124 519.973 573.124C525.159 573.124 529.351 579.125 529.351 586.541C529.351 593.956 525.146 599.958 519.973 599.958V599.958Z" fill="white"/>
<path id="Vector_40" opacity="0.1" d="M480.028 773.128L513.157 769.382L511.5 778.747C501.243 783.513 486.476 784.978 479.315 785.424L480.028 773.128Z" fill="black"/>
<path id="Vector_41" opacity="0.3" d="M492.273 517.787C492.273 526.056 490.298 553.464 478.168 557.426V557.21C478.296 557.057 478.423 556.891 478.538 556.713C483.927 549.068 486.909 517.214 486.909 517.214C488.685 517.504 490.476 517.696 492.273 517.787Z" fill="white"/>
<path id="Vector_42" opacity="0.3" d="M575.896 558.191C553.063 557.019 555.764 527.152 558.185 513.595L562.097 514.474C555.076 534.351 573.552 555.617 575.896 558.191Z" fill="white"/>
<g id="Group_5" opacity="0.1">
<path id="Vector_43" opacity="0.1" d="M576.138 559.083C576.131 559.018 576.104 558.958 576.061 558.909C576.017 558.861 575.96 558.828 575.896 558.815C570.799 557.541 576.457 559.389 570.799 557.541C570.583 557.465 571.105 556.611 571.105 556.611C571.277 563.463 569.643 570.239 566.365 576.258C557.003 593.506 552.18 612.85 552.35 632.474V634.921V635.226C552.35 635.226 559.217 653.944 552.35 653.944C545.482 653.944 546.106 663.309 537.378 665.182C529.377 666.902 503.065 678.025 491.509 675.566C492.222 676.089 492.948 676.586 493.7 677.031C503.065 682.651 533.645 669.539 542.373 667.666C551.101 665.793 550.489 656.428 557.344 656.428C564.199 656.428 557.344 637.711 557.344 637.711V637.392V634.946C557.175 615.322 561.998 595.978 571.36 578.73C574.651 572.714 576.299 565.938 576.138 559.083V559.083Z" fill="black"/>
<path id="Vector_44" opacity="0.1" d="M510.239 518.794C509.946 518.59 509.64 518.373 509.36 518.157H508.697C509.207 518.412 509.729 518.603 510.239 518.794Z" fill="black"/>
</g>
<path id="Vector_45" d="M707.185 831.166L699.706 848.011C697.571 844.499 695.231 841.117 692.698 837.881V837.881C689.065 833.028 684.777 828.701 679.957 825.025C674.74 821.23 669.816 817.047 665.227 812.513C661.711 809.111 657.863 805.734 655.136 804.32C653.552 803.524 652.039 802.595 650.613 801.542C645.643 797.72 635.883 789.883 633.577 784.366C633.577 784.366 613.611 765.649 604.87 761.903L596.155 751.71L586.14 740.026L611.725 714.441L619.256 724.978L630.456 740.65C635.522 746.945 641.317 752.617 647.72 757.545C654.099 762.172 659.991 767.436 665.304 773.256C673.68 782.365 681.03 792.368 687.219 803.084L703.312 825.7L703.426 825.878L705.975 829.433L707.185 831.166Z" fill="#EBC9A9"/>
<path id="Vector_46" d="M548.68 833.039L538.691 856.751L530.587 848.011L527.249 841.003L524.344 834.9L509.984 826.159L495.968 817.01C493.548 815.433 490.907 814.222 488.132 813.417C476.015 809.875 478.105 803.071 478.105 803.071L479.213 785.411L479.977 773.116L513.106 769.37L511.449 778.735L509.36 790.584C521.846 792.457 529.95 813.048 529.95 813.048C534.881 820.451 539.557 823.521 542.169 824.744C542.849 825.088 543.568 825.349 544.31 825.522L548.68 833.039Z" fill="#EBC9A9"/>
<path id="Vector_47" opacity="0.1" d="M706.574 830.058L704.025 826.503L703.911 826.324L687.818 803.708C681.615 792.999 674.253 783.005 665.864 773.906C660.551 768.086 654.66 762.822 648.281 758.195C641.878 753.267 636.082 747.595 631.016 741.3L619.855 725.691L612.324 715.154L611.228 716.25L617.969 725.691L629.169 741.364C634.242 747.642 640.041 753.296 646.446 758.208C652.825 762.835 658.717 768.099 664.03 773.918C672.404 783.016 679.753 793.005 685.945 803.708L702.063 826.35L702.178 826.528L704.726 830.083L706 831.816L699.298 846.902C699.999 848.011 700.394 848.66 700.394 848.66L707.886 831.816L706.574 830.058Z" fill="black"/>
<path id="Vector_48" opacity="0.1" d="M557.421 655.817C550.553 655.817 551.177 665.182 542.449 667.055C533.721 668.928 503.129 682.026 493.777 676.42C484.424 670.813 478.181 658.951 478.181 658.951V657.677C493.777 665.793 513.131 657.677 513.131 657.677C526.917 660.327 550.63 642.247 557.434 636.755V637.074C557.434 637.074 564.276 655.817 557.421 655.817Z" fill="black"/>
<path id="Vector_49" opacity="0.1" d="M619.23 725.003C617.663 736.471 604.845 746.32 596.13 751.761L586.115 740.077L611.7 714.492L619.23 725.003Z" fill="black"/>
<path id="Vector_50" d="M513.106 658.926C513.106 658.926 493.764 667.042 478.155 658.926L475.034 701.368C475.034 701.368 475.658 720.085 473.161 730.673C470.663 741.262 475.034 784.341 475.034 784.341C475.034 784.341 513.73 783.717 521.209 769.37C521.209 769.37 537.429 736.917 534.32 725.692L568.022 733.184L588.001 754.997C588.001 754.997 622.326 738.777 619.205 718.798L573.017 664.532L559.294 636.5C559.294 636.5 529.338 662.047 513.106 658.926Z" fill="#6C63FF"/>
<path id="Vector_51" opacity="0.1" d="M588.001 754.997L568.035 733.158L534.32 725.692C534.397 725.972 534.46 726.265 534.524 726.571C534.628 727.169 534.687 727.773 534.703 728.38C535.225 741.364 521.222 769.382 521.222 769.382C513.73 783.742 475.047 784.354 475.047 784.354C475.047 784.354 470.612 741.313 473.161 730.699C475.709 720.085 475.034 701.393 475.034 701.393L478.041 660.531L478.155 658.964C482.513 661.158 487.296 662.375 492.171 662.532C499.077 662.731 505.957 661.611 512.443 659.231L513.106 658.964C513.471 659.032 513.845 659.087 514.227 659.13C527.631 660.608 549.126 644.63 556.605 638.679C558.3 637.329 559.281 636.5 559.281 636.5L573.016 664.532L619.192 718.824C619.291 719.448 619.351 720.078 619.37 720.71C620.173 739.822 588.001 754.997 588.001 754.997Z" fill="black"/>
<path id="Vector_52" opacity="0.3" d="M546.909 511.034C533.008 536.148 512.507 522.247 506.824 517.634L508.735 517.519C514.125 521.737 521.477 522.349 525.121 522.349C526.4 522.353 527.677 522.447 528.943 522.629C539.481 524.107 542.692 510.104 542.692 510.104L546.909 511.034Z" fill="white"/>
<path id="Vector_53" opacity="0.1" d="M509.003 659.079C502.479 660.977 489.355 663.513 478.168 657.69L477.964 660.48C491.534 665.411 506.544 660.034 509.003 659.079Z" fill="black"/>
<path id="Vector_54" opacity="0.1" d="M523.184 656.887C519.934 657.939 516.486 658.231 513.106 657.741C513.106 657.741 511.729 658.314 509.436 659.015C513.424 659.69 518.215 658.709 523.184 656.887Z" fill="black"/>
<path id="Vector_55" opacity="0.1" d="M619.383 720.722C618.784 739.236 588.001 753.787 588.001 753.787L587.567 753.315C596.091 748.639 617.982 734.967 615.459 718.836L569.27 664.532L556.605 638.628C558.3 637.278 559.281 636.449 559.281 636.449L573.016 664.481L619.192 718.773C619.298 719.418 619.362 720.069 619.383 720.722Z" fill="black"/>
<path id="Vector_56" opacity="0.1" d="M530.587 725.691C533.709 736.929 517.476 769.37 517.476 769.37C515.259 773.613 510.328 776.658 504.467 778.837C511.908 776.62 518.546 773.243 521.222 768.121C521.222 768.121 535.62 739.325 534.677 726.596L530.587 725.691Z" fill="black"/>
</g>
</g>
<g id="ball">
<path id="Vector_57" d="M612.996 373.941C612.996 374.82 612.996 375.69 612.996 376.549C612.996 377.02 612.996 377.49 612.89 377.945C612.254 385.735 609.644 393.235 605.307 399.738C605.019 400.178 604.715 400.603 604.412 401.027C600.276 406.827 594.816 411.556 588.485 414.822C582.155 418.087 575.136 419.795 568.013 419.803C566.997 419.803 565.981 419.803 564.98 419.697C563.979 419.591 563.114 419.545 562.189 419.424C555.76 418.552 549.595 416.299 544.119 412.82C538.642 409.341 533.983 404.718 530.462 399.268C530.219 398.919 529.992 398.54 529.779 398.191V398.116C525.332 390.837 522.985 382.47 523 373.941C522.997 371.667 523.16 369.396 523.485 367.146L523.728 365.63C524.958 358.691 527.771 352.129 531.947 346.453C536.124 340.777 541.553 336.14 547.812 332.901L549.45 332.097C554.773 329.641 560.529 328.26 566.388 328.033C572.246 327.807 578.092 328.74 583.589 330.778C585.02 331.31 586.422 331.918 587.79 332.598V332.598C597.865 337.616 605.733 346.176 609.887 356.636C610.039 356.985 610.16 357.319 610.281 357.668C612.15 362.886 613.07 368.398 612.996 373.941V373.941Z" fill="#F88787"/>
<path id="Vector_58" opacity="0.5" d="M610.099 357.667C607.214 358.523 604.221 358.957 601.212 358.957H600.696H599.513C598.785 358.957 598.072 358.866 597.39 358.775C591.491 358.069 585.84 355.992 580.889 352.708V352.708C567.649 339.21 554.682 334.6 547.675 332.992L549.313 332.188C556.199 333.932 567.376 338.255 579.009 349.174C582.008 352.012 585.546 354.219 589.413 355.666C592.07 356.648 594.834 357.315 597.648 357.652C598.254 357.652 598.846 357.774 599.437 357.819H600.636C603.71 357.903 606.779 357.514 609.735 356.666C609.841 357.046 609.978 357.379 610.099 357.667Z" fill="white"/>
<path id="Vector_59" opacity="0.5" d="M612.92 376.549C612.92 377.02 612.92 377.49 612.814 377.945C608.935 375.464 604.789 373.429 600.454 371.878L599.316 371.469C588.981 367.996 578.304 365.637 567.467 364.432C541.988 361.186 529.279 364.219 523.228 367.101L523.47 365.584C530.022 362.703 542.928 360.079 567.619 363.218C578.448 364.428 589.122 366.761 599.468 370.18L600.605 370.589C604.914 372.123 609.044 374.122 612.92 376.549V376.549Z" fill="white"/>
<path id="Vector_60" opacity="0.5" d="M600.605 370.695C600.605 371.105 600.514 371.514 600.469 371.939C600.206 374.012 599.832 376.18 599.346 378.445C598.972 380.154 598.558 381.797 598.103 383.374C597.982 383.784 597.86 384.193 597.739 384.587C591.976 403.045 580.252 412.402 570.986 417.073C569.018 418.074 566.993 418.955 564.919 419.712L562.129 419.439C565.04 418.533 567.87 417.387 570.591 416.012C579.691 411.462 591.202 402.165 596.814 383.89C596.935 383.526 597.041 383.147 597.147 382.767C597.572 381.301 597.956 379.785 598.3 378.218C598.795 375.943 599.175 373.718 599.437 371.544C599.437 371.135 599.528 370.71 599.574 370.301C599.961 366.539 599.961 362.748 599.574 358.987C599.574 358.593 599.498 358.198 599.437 357.819C598.513 349.65 594.97 341.999 589.337 336.01C587.497 334.083 585.464 332.35 583.27 330.839C584.702 331.371 586.104 331.978 587.471 332.659V332.659C588.361 333.437 589.241 334.286 590.11 335.206C595.907 341.441 599.53 349.385 600.438 357.849C600.438 358.229 600.529 358.623 600.575 359.002C600.99 362.888 601.001 366.807 600.605 370.695V370.695Z" fill="white"/>
<path id="Vector_61" opacity="0.5" d="M605.185 399.754C604.897 400.194 604.594 400.618 604.291 401.043C603.017 395.522 600.975 390.208 598.224 385.255C598.08 385.009 597.901 384.784 597.693 384.588C597.39 384.311 597.048 384.081 596.677 383.905C590.838 381.008 573.397 385.862 560.43 392.868C550.451 398.267 537.393 399.223 530.249 399.284L529.567 398.207V398.131C536.392 398.131 549.799 397.312 559.899 391.852C572.032 385.331 590.08 379.719 597.026 382.752C597.394 382.913 597.745 383.112 598.073 383.344C598.549 383.684 598.951 384.117 599.255 384.618C601.883 389.383 603.876 394.472 605.185 399.754V399.754Z" fill="white"/>
</g>
</g>
<defs>
<linearGradient id="paint0_linear" x1="39981.2" y1="25561.8" x2="39981.2" y2="24563.8" gradientUnits="userSpaceOnUse">
<stop stop-color="#808080" stop-opacity="0.25"/>
<stop offset="0.54" stop-color="#808080" stop-opacity="0.12"/>
<stop offset="1" stop-color="#808080" stop-opacity="0.1"/>
</linearGradient>
<linearGradient id="paint1_linear" x1="163667" y1="123928" x2="163667" y2="35739.3" gradientUnits="userSpaceOnUse">
<stop stop-color="#808080" stop-opacity="0.25"/>
<stop offset="0.54" stop-color="#808080" stop-opacity="0.12"/>
<stop offset="1" stop-color="#808080" stop-opacity="0.1"/>
</linearGradient>
<linearGradient id="paint2_linear" x1="153333" y1="113506" x2="153333" y2="36109" gradientUnits="userSpaceOnUse">
<stop stop-color="#808080" stop-opacity="0.25"/>
<stop offset="0.54" stop-color="#808080" stop-opacity="0.12"/>
<stop offset="1" stop-color="#808080" stop-opacity="0.1"/>
</linearGradient>
<linearGradient id="paint3_linear" x1="30328.2" y1="30718.6" x2="30328.2" y2="22307.9" gradientUnits="userSpaceOnUse">
<stop stop-color="#808080" stop-opacity="0.25"/>
<stop offset="0.54" stop-color="#808080" stop-opacity="0.12"/>
<stop offset="1" stop-color="#808080" stop-opacity="0.1"/>
</linearGradient>
<linearGradient id="paint4_linear" x1="25225.8" y1="24958.9" x2="25225.8" y2="19161.6" gradientUnits="userSpaceOnUse">
<stop stop-color="#808080" stop-opacity="0.25"/>
<stop offset="0.54" stop-color="#808080" stop-opacity="0.12"/>
<stop offset="1" stop-color="#808080" stop-opacity="0.1"/>
</linearGradient>
<linearGradient id="paint5_linear" x1="64947.1" y1="68471.5" x2="64947.1" y2="51867.9" gradientUnits="userSpaceOnUse">
<stop stop-color="#808080" stop-opacity="0.25"/>
<stop offset="0.54" stop-color="#808080" stop-opacity="0.12"/>
<stop offset="1" stop-color="#808080" stop-opacity="0.1"/>
</linearGradient>
<linearGradient id="paint6_linear" x1="55202.1" y1="64936.1" x2="55202.1" y2="50016.7" gradientUnits="userSpaceOnUse">
<stop stop-color="#808080" stop-opacity="0.25"/>
<stop offset="0.54" stop-color="#808080" stop-opacity="0.12"/>
<stop offset="1" stop-color="#808080" stop-opacity="0.1"/>
</linearGradient>
<linearGradient id="paint7_linear" x1="26869.7" y1="55535.2" x2="26869.7" y2="41696" gradientUnits="userSpaceOnUse">
<stop stop-color="#808080" stop-opacity="0.25"/>
<stop offset="0.54" stop-color="#808080" stop-opacity="0.12"/>
<stop offset="1" stop-color="#808080" stop-opacity="0.1"/>
</linearGradient>
<linearGradient id="paint8_linear" x1="65589.9" y1="12216.5" x2="65589.9" y2="11402.3" gradientUnits="userSpaceOnUse">
<stop stop-color="#808080" stop-opacity="0.25"/>
<stop offset="0.54" stop-color="#808080" stop-opacity="0.12"/>
<stop offset="1" stop-color="#808080" stop-opacity="0.1"/>
</linearGradient>
<linearGradient id="paint9_linear" x1="65589.9" y1="12216.5" x2="65589.9" y2="11402.3" gradientUnits="userSpaceOnUse">
<stop stop-color="#808080" stop-opacity="0.25"/>
<stop offset="0.54" stop-color="#808080" stop-opacity="0.12"/>
<stop offset="1" stop-color="#808080" stop-opacity="0.1"/>
</linearGradient>
<linearGradient id="paint10_linear" x1="65589.9" y1="12126.4" x2="65589.9" y2="11312.2" gradientUnits="userSpaceOnUse">
<stop stop-color="#808080" stop-opacity="0.25"/>
<stop offset="0.54" stop-color="#808080" stop-opacity="0.12"/>
<stop offset="1" stop-color="#808080" stop-opacity="0.1"/>
</linearGradient>
<linearGradient id="paint11_linear" x1="307130" y1="342518" x2="307130" y2="141784" gradientUnits="userSpaceOnUse">
<stop stop-color="#808080" stop-opacity="0.25"/>
<stop offset="0.54" stop-color="#808080" stop-opacity="0.12"/>
<stop offset="1" stop-color="#808080" stop-opacity="0.1"/>
</linearGradient>
<clipPath id="clip0">
<rect width="1006.44" height="786.79" fill="white"/>
</clipPath>
</defs>
</svg>
