<svg width="1087" height="646" viewBox="0 0 1087 646" fill="none" xmlns="http://www.w3.org/2000/svg">
<g id="undraw_3d_modeling_h60h 1" clip-path="url(#clip0)">
<g id="screen">
<path id="Vector" opacity="0.1" d="M552.2 645.27C833.865 645.27 1062.2 622.437 1062.2 594.27C1062.2 566.103 833.865 543.27 552.2 543.27C270.535 543.27 42.2 566.103 42.2 594.27C42.2 622.437 270.535 645.27 552.2 645.27Z" fill="#6C63FF"/>
<path id="Vector_2" d="M983.44 69.98L983.22 568.27C948.22 568.27 983.22 568.27 947.88 568.45H816.37L815.97 568.29C796.345 560.285 774.365 560.285 754.74 568.29L754.41 568.43H622.62C618.18 566.63 613.847 564.657 609.62 562.51C598.646 556.992 586.533 554.118 574.25 554.118C561.967 554.118 549.854 556.992 538.88 562.51C534.62 564.65 530.287 566.623 525.88 568.43H393.99L393.66 568.29C374.035 560.285 352.055 560.285 332.43 568.29L332.03 568.45H200.54C178.059 559.299 157.701 545.623 140.73 528.27V69.98H983.44Z" fill="white"/>
<path id="Vector_3" d="M983.44 50.49V71.98H140.72V50.49C140.719 49.5205 140.909 48.5602 141.279 47.6642C141.65 46.7683 142.193 45.9542 142.879 45.2686C143.564 44.583 144.378 44.0395 145.274 43.6691C146.17 43.2987 147.13 43.1087 148.1 43.11H976.04C977.011 43.106 977.974 43.2941 978.872 43.6633C979.77 44.0325 980.587 44.5757 981.274 45.2615C981.962 45.9473 982.507 46.7623 982.879 47.6596C983.251 48.5569 983.441 49.5188 983.44 50.49Z" fill="#EDEDF4"/>
<path id="Vector_4" opacity="0.8" d="M154.08 60.78C155.985 60.78 157.53 59.2354 157.53 57.33C157.53 55.4246 155.985 53.88 154.08 53.88C152.175 53.88 150.63 55.4246 150.63 57.33C150.63 59.2354 152.175 60.78 154.08 60.78Z" fill="#FA5959"/>
<path id="Vector_5" opacity="0.8" d="M163.56 60.78C165.465 60.78 167.01 59.2354 167.01 57.33C167.01 55.4246 165.465 53.88 163.56 53.88C161.655 53.88 160.11 55.4246 160.11 57.33C160.11 59.2354 161.655 60.78 163.56 60.78Z" fill="#FED253"/>
<path id="Vector_6" opacity="0.8" d="M173.03 60.78C174.935 60.78 176.48 59.2354 176.48 57.33C176.48 55.4246 174.935 53.88 173.03 53.88C171.125 53.88 169.58 55.4246 169.58 57.33C169.58 59.2354 171.125 60.78 173.03 60.78Z" fill="#8CCF4D"/>
<path id="Vector_7" d="M251.2 71.98V569.45C251.2 569.45 206.2 569.27 140.73 568.27V71.98H251.2Z" fill="#EDEDF4"/>
<path id="Vector_8" d="M984.67 71.98V570.27C984.25 570.58 944.43 569.81 942.67 570.45H874.17V71.98H984.67Z" fill="#EDEDF4"/>
<path id="Vector_9" d="M235.96 96.27H155.96V106.27H235.96V96.27Z" fill="white"/>
<path id="Vector_10" d="M235.96 119.27H155.96V129.27H235.96V119.27Z" fill="white"/>
<path id="Vector_11" d="M235.96 142.27H155.96V152.27H235.96V142.27Z" fill="white"/>
<path id="Vector_12" d="M235.96 165.27H155.96V175.27H235.96V165.27Z" fill="white"/>
<path id="Vector_13" d="M235.96 188.27H155.96V198.27H235.96V188.27Z" fill="white"/>
<path id="Vector_14" d="M236.2 256.27H156.2V266.27H236.2V256.27Z" fill="white"/>
<path id="Vector_15" d="M236.2 279.27H156.2V289.27H236.2V279.27Z" fill="white"/>
<path id="Vector_16" d="M236.2 302.27H156.2V312.27H236.2V302.27Z" fill="white"/>
<path id="Vector_17" d="M236.2 325.27H156.2V335.27H236.2V325.27Z" fill="white"/>
<path id="Vector_18" d="M236.2 348.27H156.2V358.27H236.2V348.27Z" fill="white"/>
<path id="Vector_19" d="M236.43 416.27H156.43V426.27H236.43V416.27Z" fill="white"/>
<path id="Vector_20" d="M236.43 439.27H156.43V449.27H236.43V439.27Z" fill="white"/>
<path id="Vector_21" d="M236.43 462.27H156.43V472.27H236.43V462.27Z" fill="white"/>
<path id="Vector_22" d="M236.43 485.27H156.43V495.27H236.43V485.27Z" fill="white"/>
<path id="Vector_23" d="M236.43 508.27H156.43V518.27H236.43V508.27Z" fill="white"/>
<path id="Vector_24" d="M890.2 76.27H880.2V86.27H890.2V76.27Z" fill="white"/>
<path id="Vector_25" d="M902.2 76.27H892.2V86.27H902.2V76.27Z" fill="white"/>
<path id="Vector_26" d="M914.2 76.27H904.2V86.27H914.2V76.27Z" fill="white"/>
<path id="Vector_27" d="M926.2 76.27H916.2V86.27H926.2V76.27Z" fill="white"/>
<path id="Vector_28" d="M938.2 76.27H928.2V86.27H938.2V76.27Z" fill="white"/>
<path id="Vector_29" d="M890.2 118.27H880.2V128.27H890.2V118.27Z" fill="white"/>
<path id="Vector_30" d="M902.2 118.27H892.2V128.27H902.2V118.27Z" fill="white"/>
<path id="Vector_31" d="M914.2 118.27H904.2V128.27H914.2V118.27Z" fill="white"/>
<path id="Vector_32" d="M926.2 118.27H916.2V128.27H926.2V118.27Z" fill="white"/>
<path id="Vector_33" d="M938.2 118.27H928.2V128.27H938.2V118.27Z" fill="white"/>
<path id="Vector_34" d="M890.2 160.27H880.2V170.27H890.2V160.27Z" fill="white"/>
<path id="Vector_35" d="M902.2 160.27H892.2V170.27H902.2V160.27Z" fill="white"/>
<path id="Vector_36" d="M914.2 160.27H904.2V170.27H914.2V160.27Z" fill="white"/>
<path id="Vector_37" d="M926.2 160.27H916.2V170.27H926.2V160.27Z" fill="white"/>
<path id="Vector_38" d="M938.2 160.27H928.2V170.27H938.2V160.27Z" fill="white"/>
<path id="Vector_39" d="M890.2 202.27H880.2V212.27H890.2V202.27Z" fill="white"/>
<path id="Vector_40" d="M902.2 202.27H892.2V212.27H902.2V202.27Z" fill="white"/>
<path id="Vector_41" d="M914.2 202.27H904.2V212.27H914.2V202.27Z" fill="white"/>
<path id="Vector_42" d="M926.2 202.27H916.2V212.27H926.2V202.27Z" fill="white"/>
<path id="Vector_43" d="M938.2 202.27H928.2V212.27H938.2V202.27Z" fill="white"/>
<path id="Vector_44" d="M890.2 244.27H880.2V254.27H890.2V244.27Z" fill="white"/>
<path id="Vector_45" d="M902.2 244.27H892.2V254.27H902.2V244.27Z" fill="white"/>
<path id="Vector_46" d="M914.2 244.27H904.2V254.27H914.2V244.27Z" fill="white"/>
<path id="Vector_47" d="M926.2 244.27H916.2V254.27H926.2V244.27Z" fill="white"/>
<path id="Vector_48" d="M938.2 244.27H928.2V254.27H938.2V244.27Z" fill="white"/>
<path id="Vector_49" d="M890.2 286.27H880.2V296.27H890.2V286.27Z" fill="white"/>
<path id="Vector_50" d="M902.2 286.27H892.2V296.27H902.2V286.27Z" fill="white"/>
<path id="Vector_51" d="M914.2 286.27H904.2V296.27H914.2V286.27Z" fill="white"/>
<path id="Vector_52" d="M926.2 286.27H916.2V296.27H926.2V286.27Z" fill="white"/>
<path id="Vector_53" d="M938.2 286.27H928.2V296.27H938.2V286.27Z" fill="white"/>
<path id="Vector_54" d="M890.2 328.27H880.2V338.27H890.2V328.27Z" fill="white"/>
<path id="Vector_55" d="M902.2 328.27H892.2V338.27H902.2V328.27Z" fill="white"/>
<path id="Vector_56" d="M914.2 328.27H904.2V338.27H914.2V328.27Z" fill="white"/>
<path id="Vector_57" d="M926.2 328.27H916.2V338.27H926.2V328.27Z" fill="white"/>
<path id="Vector_58" d="M938.2 328.27H928.2V338.27H938.2V328.27Z" fill="white"/>
<path id="Vector_59" d="M890.2 370.27H880.2V380.27H890.2V370.27Z" fill="white"/>
<path id="Vector_60" d="M902.2 370.27H892.2V380.27H902.2V370.27Z" fill="white"/>
<path id="Vector_61" d="M914.2 370.27H904.2V380.27H914.2V370.27Z" fill="white"/>
<path id="Vector_62" d="M926.2 370.27H916.2V380.27H926.2V370.27Z" fill="white"/>
<path id="Vector_63" d="M938.2 370.27H928.2V380.27H938.2V370.27Z" fill="white"/>
<path id="Vector_64" d="M890.2 412.27H880.2V422.27H890.2V412.27Z" fill="white"/>
<path id="Vector_65" d="M902.2 412.27H892.2V422.27H902.2V412.27Z" fill="white"/>
<path id="Vector_66" d="M914.2 412.27H904.2V422.27H914.2V412.27Z" fill="white"/>
<path id="Vector_67" d="M926.2 412.27H916.2V422.27H926.2V412.27Z" fill="white"/>
<path id="Vector_68" d="M938.2 412.27H928.2V422.27H938.2V412.27Z" fill="white"/>
<path id="Vector_69" d="M890.2 454.27H880.2V464.27H890.2V454.27Z" fill="white"/>
<path id="Vector_70" d="M902.2 454.27H892.2V464.27H902.2V454.27Z" fill="white"/>
<path id="Vector_71" d="M914.2 454.27H904.2V464.27H914.2V454.27Z" fill="white"/>
<path id="Vector_72" d="M926.2 454.27H916.2V464.27H926.2V454.27Z" fill="white"/>
<path id="Vector_73" d="M938.2 454.27H928.2V464.27H938.2V454.27Z" fill="white"/>
<path id="Vector_74" d="M890.2 496.27H880.2V506.27H890.2V496.27Z" fill="white"/>
<path id="Vector_75" d="M902.2 496.27H892.2V506.27H902.2V496.27Z" fill="white"/>
<path id="Vector_76" d="M914.2 496.27H904.2V506.27H914.2V496.27Z" fill="white"/>
<path id="Vector_77" d="M926.2 496.27H916.2V506.27H926.2V496.27Z" fill="white"/>
<path id="Vector_78" d="M938.2 496.27H928.2V506.27H938.2V496.27Z" fill="white"/>
<path id="Vector_79" d="M890.2 538.27H880.2V548.27H890.2V538.27Z" fill="white"/>
<path id="Vector_80" d="M902.2 538.27H892.2V548.27H902.2V538.27Z" fill="white"/>
<path id="Vector_81" d="M914.2 538.27H904.2V548.27H914.2V538.27Z" fill="white"/>
<path id="Vector_82" d="M926.2 538.27H916.2V548.27H926.2V538.27Z" fill="white"/>
<path id="Vector_83" d="M938.2 538.27H928.2V548.27H938.2V538.27Z" fill="white"/>
</g>
<g id="plane">
<path id="Vector_84" d="M592.69 183.07L561.12 187.79L495.97 197.52L352.44 218.97L351.93 219.04L304.93 528.54L304.74 529.77L839.74 296.15L841.16 295.53L592.69 183.07ZM808.92 282.44L792.44 288.68L768.14 276.87L784.49 271.38L808.92 282.44ZM547.55 195.92L548.09 195.84L554.09 199.55L550 200.21L542.72 201.38L537.15 197.53L545.69 196.23L547.55 195.92ZM542.44 202.84L547.73 206.5L550.4 208.35L547.73 208.88L545.73 209.28L540.44 210.33L532.78 204.4L541.84 202.94L542.44 202.84ZM550.78 201.49L555.93 200.65L564.02 205.65L552.27 207.99L549.68 206.2L544.39 202.54L550.78 201.49ZM573.65 197.79L583.89 196.14L591.52 200.14L580.52 202.33L576.42 199.99L572.78 197.91L573.65 197.79ZM583.33 205.54L588.04 208.23L586.96 208.45L575.09 210.81L567.72 206.28L580.26 203.79L583.33 205.54ZM549.44 217.35L560.25 215.19L561.85 216.31L562.22 216.56L564.53 218.16L553.53 220.53L550.44 218.09L550.21 217.9L549.44 217.35ZM562.13 214.82L574.82 212.29L577.82 214.13L578.38 214.47L579.24 215L566.44 217.77L564.32 216.3L563.94 216.03L562.13 214.82ZM521.44 291.51L496.56 298.07L489.35 285.32L512.86 279.63L521.44 291.51ZM512.04 278.4L488.64 284.08L482.64 273.45L504.28 268.33L504.74 268.22L510.47 276.22V276.29L512.04 278.4ZM587.57 234.07L589.87 235.67L584.17 236.9L577.44 238.34L576.72 238.5L574.89 237.08L572.77 235.43L563.77 228.43L575.52 225.75L583.94 231.58L587.57 234.07ZM546.21 232.47L547.75 232.12L562.09 228.85L571.01 235.76L573.13 237.41L575.03 238.88L558.15 242.53L555.76 240.53L554.14 239.17L547.14 233.29L546.21 232.47ZM576.44 239.98L577.99 241.18L578.53 241.6L586.19 247.53L568.89 251.63L559.44 243.63L576.44 239.98ZM556.44 242.9L550.97 244.08H550.87L522.2 250.28L521.01 250.54L512.23 240.19L521.88 237.99L544.44 232.85L556.44 242.9ZM522.24 251.7L549.8 245.7L552.17 245.19L557.76 243.98L567.25 251.98L560.91 253.48L558.58 254.03L529.76 260.85L522.24 251.99L522.01 251.72L522.24 251.7ZM537.58 272.21L522.88 275.77L513.48 278.05L506.17 267.88L522.56 264L529.26 262.42L537.58 272.21ZM522.91 277.21L538.58 273.42L548 284.53L523.28 291.05L522.86 291.16L514.34 279.29L522.91 277.21ZM530.77 262.09L559.77 255.23L562.1 254.68L568.55 253.15L579.23 262.15L574.58 263.28L565.58 265.45L539.04 271.89L530.77 262.09ZM570.24 252.75L587.59 248.65L591.24 251.48L598.86 257.39L591.24 259.24L580.91 261.74L570.24 252.75ZM591.24 249.75L589.31 248.25L591.24 247.79L603.24 244.96L615.42 253.39L600.6 256.98L591.24 249.75ZM591.24 246.37L587.91 247.16L579.61 240.73L578.16 239.63L581.84 238.83L591.2 236.83H591.37L601.65 243.95L591.24 246.37ZM562.41 227.37L554.98 221.63L566.1 219.24L574 224.71L562.41 227.37ZM560.67 227.77L547.74 230.72L545.74 231.17L544.88 231.37L537.76 225.37L545.76 223.65L547.76 223.22L553.28 222.03L560.67 227.77ZM543.19 231.77L521.8 236.63L511.18 239.05L505.44 232.3L521.56 228.83L535.98 225.72L543.19 231.77ZM509.71 239.4L497.55 242.17L489.09 244.1L483.97 236.97L497.27 234.11L503.94 232.63L509.71 239.4ZM497.6 243.58L510.71 240.58L519.44 250.89L497.97 255.54L497.37 255.67L489.92 245.29L497.6 243.58ZM520.44 252.08L522.26 254.22L528.21 261.22L522.49 262.63L505.26 266.63L498.26 256.85L520.44 252.08ZM540.04 273.03L564.62 267.03L575.27 264.44L580.51 263.17L591.19 272.17L591.99 272.84L591.19 273.05L549.43 284.05L540.04 273.03ZM591.2 270.41L582.2 262.81L591.2 260.63L600.2 258.44L612.04 267.63L593.63 272.49L591.2 270.41ZM601.93 258.02L616.87 254.4L629.35 263.04L613.72 267.16L601.93 258.02ZM618.67 253.97L635.83 249.81L648.95 257.87L631.1 262.63L618.67 253.97ZM617.15 252.91L604.99 244.49L620.99 240.7L634.15 248.79L617.15 252.91ZM603.44 243.43L593.2 236.34L608.53 233.03L619.36 239.63L603.44 243.43ZM591.65 235.27L591.18 234.94L577.34 225.36L591 222.24L591.18 222.35L606.83 231.98L591.65 235.27ZM575.8 224.27L567.93 218.82L580.93 216.02L589.34 221.19L575.8 224.27ZM548.44 218.27L551.77 220.84L547.67 221.72L545.67 222.15L536.35 224.15L532.25 220.7L537.25 219.7L539.09 219.34H539.17L545.62 218.05L547.62 217.66L548.16 218.09L548.44 218.27ZM521.44 222.87L530.55 221.05L534.68 224.53L521.56 227.36L504.44 231.11L500.97 227.02L521.44 222.87ZM502.93 231.37L497.18 232.61L483.05 235.61L479.84 231.13L497.01 227.7L499.44 227.22L502.93 231.37ZM481.58 235.97L463.58 239.84L460.81 234.96L478.33 231.46L481.58 235.97ZM482.46 237.19L487.59 244.34L468.59 248.67L464.31 241.1L482.46 237.19ZM488.46 245.55L495.9 255.91L475.22 260.39L469.3 249.92L488.46 245.55ZM496.78 257.14L498.09 258.93L503.8 266.93L503.27 267.05L481.86 272.12L475.93 261.63L496.78 257.14ZM487.2 284.34L461.57 290.63L456.88 279.54L481.18 273.79L487.2 284.34ZM487.9 285.59L495.13 298.36L467.91 305.63L462.12 291.93L487.9 285.59ZM495.83 299.59L504.44 314.83L475.34 323.11L468.44 306.89L495.83 299.59ZM497.21 299.23L522.21 292.63L532.44 306.86L505.81 314.44L497.21 299.23ZM523.68 292.23L548.95 285.63L560.23 298.92L533.82 306.43L523.68 292.23ZM550.46 285.23L591.23 274.47L593.32 273.92L607.11 285.63L561.69 298.55L550.46 285.23ZM594.92 273.46L613.44 268.63L627.74 279.71L608.74 285.12L594.92 273.46ZM615.1 268.14L630.84 263.99L645.98 274.48L629.37 279.2L615.1 268.14ZM632.59 263.63L650.59 258.89L666.59 268.72L647.72 274.09L632.59 263.63ZM652.44 258.38L668.54 254.14L684.93 263.49L668.4 268.19L652.44 258.38ZM650.82 257.38L637.75 249.38L653.44 245.54L666.81 253.17L650.82 257.38ZM636.1 248.32L622.95 240.24L637.95 236.69L651.7 244.53L636.1 248.32ZM621.29 239.21L610.5 232.63L625.18 229.45L636.18 235.72L621.29 239.21ZM608.83 231.55L592.97 221.8L606.44 218.73L623.44 228.41L608.83 231.55ZM591.29 220.76H591.23L582.88 215.63L591.2 213.84L596.02 212.84L604.65 217.77L591.29 220.76ZM591.23 212.41L586.75 213.41H586.65L581.18 214.63L580.55 214.24L579.97 213.88L576.82 211.94L588.36 209.64L589.87 209.34L594.22 211.82L591.23 212.41ZM573.13 211.22L560.59 213.72L553.86 209.05L565.76 206.69L573.13 211.22ZM558.71 214.09L548.04 216.22L547.73 215.98L545.73 214.43L541.87 211.43L545.73 210.66L547.73 210.26L551.97 209.42L558.71 214.09ZM545.71 216.18L546.23 216.58L545.71 216.68L530.93 219.63L525.15 214.76L540.05 211.76L545.71 216.18ZM529.21 219.97L521.21 221.58L500.04 225.8L496.89 222.09L495.58 220.63L496.76 220.4L515.76 216.62L523.43 215.09L529.21 219.97ZM496.9 224.31L498.43 226.11L496.98 226.4L478.98 230L475.18 224.7L494.07 220.95L496.9 224.31ZM477.48 230.31L460.13 233.77L457.05 228.33L473.68 225.02L477.48 230.31ZM458.7 234.06L439.3 237.93L436.94 232.33L455.61 228.63L458.7 234.06ZM459.42 235.32L462.19 240.22L442.1 244.55L439.85 239.22L459.42 235.32ZM462.9 241.48L467.2 249.07L446.05 253.89L442.65 245.84L462.9 241.48ZM467.9 250.32L473.81 260.77L451.03 265.7L446.59 255.18L467.9 250.32ZM474.52 262.03L480.44 272.53L456.31 278.24L451.55 266.98L474.52 262.03ZM460.22 290.96L434.44 297.21L431.14 285.63L455.52 279.86L460.22 290.96ZM460.76 292.25L466.56 305.97L438.96 313.25L434.79 298.54L460.76 292.25ZM467.1 307.25L473.97 323.49L444.25 331.94L439.34 314.57L467.1 307.25ZM474.51 324.77L482.51 343.77L450.44 353.63L444.68 333.3L474.51 324.77ZM475.85 324.39L505.11 316.06L515.18 333.85L483.88 343.39L475.85 324.39ZM506.44 315.68L533.24 308.05L545.18 324.69L516.5 333.44L506.44 315.68ZM534.65 307.68L561.18 300.14L574.47 315.79L546.57 324.3L534.65 307.68ZM562.65 299.68L608.36 286.68L624.7 300.44L575.94 315.33L562.65 299.68ZM609.96 286.22L629.06 280.79L646.06 293.94L626.31 299.94L609.96 286.22ZM630.7 280.32L647.44 275.63L665.44 288.09L647.66 293.51L630.7 280.32ZM649.15 275.08L668.15 269.68L687.15 281.39L667.07 287.51L649.15 275.08ZM669.94 269.16L686.56 264.44L706.16 275.63L688.97 280.87L669.94 269.16ZM688.44 263.92L704 259.49L724.17 270.13L707.99 275.07L688.44 263.92ZM686.77 262.92L670.44 253.63L685.44 249.68L702.27 258.55L686.77 262.92ZM668.7 252.63L655.38 245.04L669.94 241.51L683.59 248.71L668.7 252.63ZM653.64 244.04L639.89 236.2L653.69 232.94L668.1 240.54L653.64 244.04ZM638.14 235.2L627.2 228.96L640.64 226.06L651.84 231.96L638.14 235.2ZM625.44 227.97L608.44 218.28L620.6 215.5L638.76 225.08L625.44 227.97ZM606.67 217.27L598.07 212.36L609.84 209.82L618.74 214.52L606.67 217.27ZM596.27 211.34L591.96 208.88L603.63 206.55L607.94 208.82L596.27 211.34ZM590.14 207.84L582.35 203.39L593.46 201.19L601.7 205.53L590.14 207.84ZM578.44 202.76L566 205.24L558 200.32L570.59 198.32L578.44 202.76ZM538.61 210.69L523.8 213.63L516.04 207.1L530.88 204.7L538.61 210.69ZM522.08 213.98L514.5 215.49L496.72 219.02L494.57 219.45L487.93 211.63L496.41 210.26L506.94 208.56L514.24 207.38L522.08 213.98ZM493.02 219.75L474.28 223.48L468.08 214.85L486.35 211.85L493.02 219.75ZM472.79 223.75L456.33 227.02L450.98 217.63L466.55 215.11L472.79 223.75ZM454.9 227.31L436.39 230.99L432 220.63L449.52 217.8L454.9 227.31ZM435 231.31L416.79 234.93L413.59 223.63L430.59 220.88L435 231.31ZM435.55 232.6L437.92 238.2L418.8 242.01L417.17 236.26L435.55 232.6ZM438.47 239.5L440.73 244.85L420.82 249.14L419.18 243.35L438.47 239.5ZM441.28 246.14L444.68 254.2L423.61 259L421.19 250.47L441.28 246.14ZM445.23 255.49L449.67 266L426.98 270.9L423.98 260.33L445.23 255.49ZM450.23 267.29L455 278.57L430.78 284.3L427.37 272.23L450.23 267.29ZM433.08 297.53L404.84 304.37L403.28 292.21L429.79 285.94L433.08 297.53ZM433.45 298.86L437.62 313.63L407.06 321.63L405.06 305.73L433.45 298.86ZM438 314.92L442.93 332.32L409.64 341.79L407.24 323.03L438 314.92ZM443.3 333.65L449.07 354.01L412.64 365.11L409.82 343.17L443.3 333.65ZM449.44 355.33L456.44 380.01L416.29 393.49L412.82 366.49L449.44 355.33ZM450.76 354.93L483.09 345.07L492.72 367.84L457.72 379.57L450.76 354.93ZM484.44 344.63L515.89 335.04L527.77 356.04L494.05 367.36L484.44 344.63ZM517.24 334.63L546.08 325.84L560 345.23L529.09 355.63L517.24 334.63ZM547.44 325.45L575.44 316.91L590.74 334.91L561.31 344.79L547.44 325.45ZM576.9 316.45L625.97 301.45L644.31 316.9L592.17 334.4L576.9 316.45ZM627.54 301.01L647.37 295.01L666.24 309.63L645.85 316.47L627.54 301.01ZM648.98 294.47L666.88 289.02L686.68 302.73L667.8 309.06L648.98 294.47ZM668.56 288.47L688.77 282.31L709.44 295.1L688.28 302.2L668.56 288.47ZM690.56 281.78L707.83 276.51L728.91 288.51L711.21 294.46L690.56 281.78ZM709.65 275.96L725.91 270.96L747.4 282.29L730.67 287.91L709.65 275.96ZM727.78 270.43L742.56 265.92L764.56 276.59L749.25 281.72L727.78 270.43ZM726.05 269.51L705.93 258.9L719.93 254.9L740.75 265.01L726.05 269.51ZM704.14 258.02L687.36 249.17L700.72 245.63L718.04 254.04L704.14 258.02ZM685.56 248.22L671.97 241.05L684.83 237.93L698.83 244.72L685.56 248.22ZM670.12 240.08L655.73 232.49L667.73 229.64L682.84 236.98L670.12 240.08ZM653.88 231.51L642.74 225.63L654.35 223.12L665.81 228.69L653.88 231.51ZM640.88 224.63L622.68 215.03L632.94 212.7L652.38 222.14L640.88 224.63ZM620.81 214.05L611.95 209.37L621.75 207.26L630.96 211.73L620.81 214.05ZM610.05 208.37L605.79 206.12L615.44 204.2L619.74 206.28L610.05 208.37ZM603.85 205.1L595.62 200.76L604.62 198.96L613.35 203.2L603.85 205.1ZM593.68 199.74L586.16 195.74L595.16 194.29L602.65 197.93L593.68 199.74ZM584.13 194.74L577.73 191.37L586.27 190.06L592.97 193.32L584.13 194.74ZM581.87 195.11L572.17 196.63L570.85 196.84L564.66 193.32L567.5 192.89L575.41 191.68L581.87 195.11ZM568.71 197.24L556.23 199.24L550.23 195.55L562.44 193.63L568.71 197.24ZM540.81 201.74L531.29 203.28L526.09 199.28L535.2 197.89L540.81 201.74ZM529.44 203.54L514.7 205.92L509.7 201.71L524.21 199.49L529.44 203.54ZM512.9 206.21L505.69 207.38L496.41 208.88L486.94 210.41L483.01 205.78L496.23 203.78L500.96 203.05L507.89 202L512.9 206.21ZM485.3 210.63L467.17 213.63L463.68 208.77L481.36 206.07L485.3 210.63ZM465.65 213.8L450.25 216.29L447.36 211.18L462.15 208.92L465.65 213.8ZM448.8 216.52L431.44 219.37L429.17 213.99L445.89 211.44L448.8 216.52ZM430.05 219.52L413.21 222.24L411.62 216.63L427.77 214.17L430.05 219.52ZM411.84 222.53L394.7 225.3L393.93 219.37L410.24 216.88L411.84 222.53ZM412.22 223.87L415.42 235.19L396.42 238.96L394.87 226.63L412.22 223.87ZM415.8 236.52L417.43 242.28L397.43 246.28L396.66 240.34L415.8 236.52ZM417.8 243.61L419.44 249.42L398.36 253.96L397.55 247.64L417.8 243.61ZM419.8 250.75L422.22 259.3L399.69 264.44L398.52 255.33L419.8 250.75ZM422.6 260.63L425.6 271.19L401.24 276.46L399.87 265.81L422.6 260.63ZM425.96 272.52L429.44 284.63L403.12 290.85L401.46 277.85L425.96 272.52ZM403.46 304.7L373.17 312.04L373.39 299.27L401.9 292.53L403.46 304.7ZM403.64 306.08L405.64 322.01L372.87 330.63L373.17 313.43L403.64 306.08ZM405.86 323.39L408.27 342.17L372.44 352.36L372.8 332.1L405.86 323.39ZM408.44 343.55L411.26 365.55L372 377.55L372.42 353.86L408.44 343.55ZM411.44 366.91L414.9 393.91L371.44 408.52L371.97 378.94L411.44 366.91ZM415.08 395.33L419.52 429.9L370.74 448.38L371.42 409.98L415.08 395.33ZM416.42 394.88L456.77 381.34L465.58 412.46L420.85 429.4L416.42 394.88ZM458.08 380.88L493.22 369.09L505.22 397.43L466.89 411.95L458.08 380.88ZM494.57 368.63L528.44 357.3L543.05 383.13L506.52 396.96L494.57 368.63ZM529.78 356.81L560.78 346.4L577.69 369.96L544.37 382.63L529.78 356.81ZM562.19 345.94L591.73 336.03L610.12 357.69L579.06 369.45L562.19 345.94ZM593.19 335.55L645.61 317.96L667.15 336.11L611.54 357.17L593.19 335.55ZM647.14 317.45L667.55 310.63L689.55 327.63L668.55 335.57L647.14 317.45ZM669.14 310.06L688.14 303.69L710.98 319.5L691.08 327.04L669.14 310.06ZM689.76 303.14L711.03 296L734.66 310.53L712.53 318.91L689.76 303.14ZM712.76 295.43L730.54 289.43L754.39 303.03L736.31 309.88L712.76 295.43ZM732.29 288.87L749.11 283.23L773.2 295.94L756.06 302.43L732.29 288.87ZM750.87 282.63L766.27 277.47L790.67 289.32L774.88 295.32L750.87 282.63ZM782.65 270.52L766.37 275.98L744.44 265.38L760.44 260.51L782.65 270.52ZM758.56 259.63L742.66 264.47L721.89 254.38L737.29 250L758.56 259.63ZM735.34 249.14L720.03 253.5L702.76 245.11L717.76 241.11L735.34 249.14ZM715.72 240.26L700.86 244.18L686.94 237.42L701.59 233.87L715.72 240.26ZM699.55 232.94L684.99 236.47L669.89 229.14L683.84 225.84L699.55 232.94ZM681.78 224.94L667.93 228.21L656.53 222.63L670.24 219.63L681.78 224.94ZM668.13 218.76L654.53 221.63L635.05 212.17L647.44 209.38L668.13 218.76ZM645.44 208.44L633.12 211.24L623.95 206.79L635.1 204.39L634.95 203.69L645.44 208.44ZM633.93 203.23L621.93 205.81L617.69 203.75L627.95 201.7L627.69 200.4L633.93 203.23ZM627.61 200.37L615.61 202.75L606.88 198.51L618.44 196.22L627.61 200.37ZM616.28 195.24L604.86 197.52L597.44 193.94L609.16 192.05L616.28 195.24ZM606.95 191.02L595.35 192.89L588.63 189.63L600.04 187.89L606.95 191.02ZM592.54 184.5L597.79 186.87L586.44 188.63L581.44 186.19L592.54 184.5ZM579.06 186.5L584.06 188.95L575.65 190.23L570.88 187.72L579.06 186.5ZM562.63 188.95L568.63 188.06L573.41 190.58L566.08 191.7L562.78 192.21L558.24 189.61L562.63 188.95ZM556.02 189.95L560.57 192.55L548.43 194.4L544.09 191.74L556.02 189.95ZM542.02 192.05L546.37 194.73L535.6 196.37L531.6 193.61L542.02 192.05ZM529.62 193.91L533.62 196.67L524.62 198.04L520.95 195.2L529.62 193.91ZM519.08 195.48L522.76 198.33L508.35 200.53L504.77 197.63L519.08 195.48ZM496.08 198.92L496.43 198.87L503.03 197.87L506.5 200.8L499.68 201.8L496.2 202.33L481.99 204.5L479.33 201.37L496.08 198.92ZM477.65 201.63L480.32 204.76L462.78 207.44L460.44 204.23L477.65 201.63ZM458.92 204.43L461.25 207.67L446.63 209.9L444.73 206.55L458.92 204.43ZM443.27 206.76L445.17 210.12L428.62 212.65L427.15 209.17L443.27 206.76ZM425.74 209.38L427.22 212.86L411.22 215.3L410.22 211.7L425.74 209.38ZM408.84 211.91L409.84 215.51L393.74 217.97L393.26 214.23L408.84 211.91ZM374.84 216.98L391.84 214.44L392.32 218.18L374.74 220.86L374.84 216.98ZM374.75 222.26L392.57 219.63L393.33 225.58L374.68 228.58L374.75 222.26ZM374.61 229.91L393.47 226.86L395.05 239.2L374.44 243.35L374.61 229.91ZM374.44 244.76L395.27 240.63L396.03 246.57L374.28 250.91L374.44 244.76ZM374.31 252.29L396.26 247.92L397.07 254.25L374.18 259.18L374.31 252.29ZM374.16 260.6L397.25 255.6L398.42 264.72L373.99 270.29L374.16 260.6ZM373.96 271.73L398.59 266.12L399.96 276.75L373.77 282.41L373.96 271.73ZM400.13 278.12L401.8 291.12L373.5 297.82L373.75 283.82L400.13 278.12ZM353.22 220.26L373.55 217.26L373.48 221.14L352.61 224.33L353.22 220.26ZM352.4 225.72L373.4 222.5L373.29 228.76L351.35 232.31L352.4 225.72ZM351.18 233.72L373.32 230.14L373.03 243.63L348.9 248.43L351.18 233.72ZM348.73 249.85L373.05 245.01L372.95 251.14L347.77 256.14L348.73 249.85ZM347.5 257.63L372.87 252.57L372.75 259.48L346.36 265.16L347.5 257.63ZM346.14 266.63L372.72 260.91L372.55 270.64L344.55 277.02L346.14 266.63ZM344.34 278.48L372.53 272.06L372.34 282.72L342.72 289.13L344.34 278.48ZM342.5 290.63L372.31 284.18L372.06 298.23L340.2 305.76L342.5 290.63ZM339.98 307.23L372.04 299.63L371.81 312.41L337.95 320.63L339.98 307.23ZM337.72 322.11L371.79 313.86L371.44 331.03L334.86 340.68L337.72 322.11ZM334.72 342.22L371.5 332.52L371.14 352.8L331.4 364.11L334.72 342.22ZM331.17 365.6L371.12 354.24L370.7 377.97L327.28 391.2L331.17 365.6ZM327.01 392.63L370.62 379.34L370.1 408.95L322.1 425.06L327.01 392.63ZM368.44 500.46L306.51 527.46L315.1 470.88L369.33 450.34L368.44 500.46ZM315.33 469.37L321.85 426.63L370.07 410.45L369.44 448.91L315.33 469.37ZM369.83 499.85L370.72 449.85L419.72 431.3L425.44 475.63L369.83 499.85ZM426.71 475.02L421.04 430.81L465.97 413.81L477.07 453.04L426.71 475.02ZM478.35 452.46L467.26 413.3L505.75 398.73L520.65 433.99L478.35 452.46ZM521.92 433.46L507.04 398.26L543.72 384.36L561.72 416.1L521.92 433.46ZM562.92 415.54L545 383.87L578.5 371.18L599.02 399.78L562.92 415.54ZM600.31 399.21L579.89 370.63L611.07 358.83L633.16 384.83L600.31 399.21ZM634.44 384.3L612.44 358.3L668.32 337.14L693.61 358.45L634.44 384.3ZM694.98 357.86L669.78 336.63L690.78 328.63L716.44 348.51L694.98 357.86ZM717.85 347.86L692.29 328.05L712.29 320.48L738.69 338.76L717.85 347.86ZM740.17 338.11L713.86 319.88L736.1 311.46L763.1 328.09L740.17 338.11ZM764.67 327.41L737.67 310.85L755.83 303.97L782.91 319.42L764.67 327.41ZM784.54 318.73L757.54 303.34L774.75 296.82L801.91 311.14L784.54 318.73ZM803.54 310.44L776.48 296.17L792.34 290.17L819.62 303.42L803.54 310.44ZM821.29 302.69L794.12 289.49L810.67 283.22L837.78 295.49L821.29 302.69Z" fill="#EDEDF4"/>
</g>
<g id="cube">
<path id="Vector_85" d="M591.2 211.85V276.11L522.51 291.62L498.14 260.6L495.99 198.54L495.93 196.35L557.96 185.27L591.2 211.85Z" fill="#EDEDF4"/>
<path id="Vector_86" opacity="0.1" d="M591.2 212.3V276.11L523.24 291.46L522.51 291.62L498.14 260.6L495.99 198.54L521.4 221.82L591.2 212.3Z" fill="black"/>
<path id="Vector_87" opacity="0.1" d="M591.2 212.5V276.11L523.24 291.46L521.4 221.82L590.09 212.96L591.2 212.5Z" fill="black"/>
<path id="Vector_88" d="M553.46 206.18L550.08 200.31L546.7 194.45L543.31 200.31L539.93 206.18H545.7V233.27H547.7V206.18H553.46Z" fill="#6C63FF"/>
<path id="Vector_89" d="M574.08 262.41L570.7 256.54L568.36 260.6L550.88 244.04L549.51 245.49L567.33 262.38L567.31 262.41L563.93 268.27H570.7H577.46L574.08 262.41Z" fill="#6C63FF"/>
<path id="Vector_90" d="M582.12 230.93L575.76 228.6L576.82 234.71L554.02 238.78L554.37 240.75L577.16 236.68L578.08 241.94L583.27 237.6L588.47 233.26L582.12 230.93Z" fill="#6C63FF"/>
</g>
<g id="man">
<path id="Vector_91" d="M201.5 409.04C198.2 423.57 185.06 401.61 182.07 396.34L181.46 395.25L182.89 388.57L190.42 385.5C191.611 386.121 192.739 386.854 193.79 387.69C197.91 390.91 204.05 397.8 201.5 409.04Z" fill="#EBC9A9"/>
<path id="Vector_92" d="M303.44 385.28C303.44 385.28 303.44 385.39 303.36 385.6L303.25 385.96C301.97 390.49 294.3 416.02 286.91 408.96C278.81 401.19 282.75 383.33 282.75 383.33H282.8L299.8 381.59L303.17 385.05L303.44 385.28Z" fill="#EBC9A9"/>
<path id="Vector_93" d="M293.58 510.87L294.01 559.58C287.34 570.65 287.89 580.5 287.89 580.5L265.89 581.37C260.52 577.76 264.36 567.69 264.36 567.69V542.63C264.36 542.63 260.96 518.11 262.6 511.32C264.24 504.53 255.71 491.94 255.71 491.94L254.5 478.26C250.34 472.78 248.37 442.56 248.37 442.56L243.89 427.37C244.01 428.03 246.33 440.76 243.89 443.11C241.45 445.46 240.5 455.81 240.5 455.81C240.5 455.81 242.91 484.5 240.5 490.3C238.09 496.1 241.15 499.39 241.15 499.39L241.59 529.17C241.59 529.17 239.51 537.17 241.81 548.43C244.11 559.69 241.81 577.12 241.81 577.12H218.14L218.25 564.97L214.44 554.63C214.44 554.63 211.81 512.15 209.73 502.95C208.485 497.499 209.263 491.78 211.92 486.86C211.92 486.86 207.54 479.86 207.76 474.92C207.98 469.98 204.44 460.63 204.44 460.63L199.35 426.03C199.494 419.371 198.645 412.728 196.83 406.32C193.83 396.47 189.5 383.55 189.5 383.55L194.44 383.99L219.44 386.21C219.44 386.21 280.09 382.13 282.81 385.52C283.384 386.625 283.769 387.818 283.95 389.05C286.67 401.29 290.27 439.61 290.27 439.61C290.27 439.61 297.61 469.5 294.46 472.46C291.31 475.42 291.7 485.04 291.7 485.04C296.31 494.11 293.58 510.87 293.58 510.87Z" fill="#2F2E41"/>
<path id="Vector_94" d="M242.31 595.63C242.14 598.34 239.11 598.5 239.11 598.5C230.24 599.9 228.35 603.35 228.35 603.35C225.468 605.941 222.089 607.918 218.419 609.161C214.748 610.404 210.863 610.887 207 610.58C196.09 609.58 197.16 607.58 197.71 603.98C197.823 603.319 197.883 602.65 197.89 601.98C197.89 597.05 201.66 595.66 207.58 591.98C213.5 588.3 213.32 585.16 215.79 582.46C218.26 579.76 218.5 574.46 218.5 574.46C221.29 569.61 228.35 575.19 228.35 575.19C228.68 576.91 239.19 576.67 239.19 576.67C239.19 576.67 240.59 582.25 241.3 582.58C241.78 582.8 242.13 587.18 242.3 590.94C242.35 592.85 242.37 594.63 242.31 595.63Z" fill="#303D5C"/>
<path id="Vector_95" opacity="0.1" d="M242.31 595.63C242.14 598.34 239.11 598.5 239.11 598.5C230.24 599.9 228.35 603.35 228.35 603.35C225.468 605.941 222.089 607.918 218.419 609.161C214.748 610.404 210.863 610.887 207 610.58C196.09 609.58 197.16 607.58 197.71 603.98C202.58 605.19 211.91 606.88 217.34 603.92C224.9 599.82 230.34 596.92 230.34 596.92L242.29 590.92C242.35 592.85 242.37 594.63 242.31 595.63Z" fill="black"/>
<path id="Vector_96" d="M309.14 610.19C308.553 611.265 307.576 612.074 306.41 612.45H306.2C302.59 613.18 288.62 613.18 288.62 613.18C288.62 613.18 274.5 602.27 270.23 602.02C268.907 601.88 267.632 601.449 266.496 600.757C265.36 600.066 264.392 599.131 263.66 598.02C263.66 598.02 263.74 595.48 264.02 592.53C264.35 589.03 264.93 584.97 265.96 583.9C267.85 581.9 268.26 579.22 272.53 580.9C272.53 580.9 278.6 570.21 285.74 578.47L293.14 589.69C293.14 589.69 294.53 594.37 303.9 599.38C307.65 601.38 309.35 603.75 309.79 605.91C310.134 607.367 309.901 608.901 309.14 610.19Z" fill="#303D5C"/>
<path id="Vector_97" opacity="0.1" d="M309.14 610.19C308.3 610.9 307.38 611.66 306.41 612.45H306.2C302.59 613.18 288.62 613.18 288.62 613.18C288.62 613.18 274.5 602.27 270.23 602.02C268.907 601.88 267.632 601.449 266.496 600.757C265.36 600.066 264.392 599.131 263.66 598.02C263.66 598.02 263.74 595.48 264.02 592.53C268.36 593.83 274.95 596.13 276.72 598.6C279.42 602.37 287.65 607.6 287.65 607.6C287.65 607.6 302.98 606.13 309.79 605.92C310.131 607.374 309.898 608.903 309.14 610.19Z" fill="black"/>
<path id="Vector_98" d="M249.44 228.11L229.23 249.46C229.23 249.46 204.76 247.66 209.03 240.46C211.21 236.78 211.55 229.07 211.36 222.37C211.18 215.91 210.51 210.37 210.51 210.37C210.51 210.37 244.84 193.29 242.21 209.22C241.648 212.224 241.614 215.304 242.11 218.32C243.63 226.36 249.44 228.11 249.44 228.11Z" fill="#EBC9A9"/>
<path id="Vector_99" opacity="0.1" d="M242.23 209.22C241.668 212.224 241.634 215.304 242.13 218.32C237.55 222.95 231.19 221.93 224.13 221.93C219.47 221.93 214.47 222 210.72 219.79C210.54 213.33 210.5 210.37 210.5 210.37C210.5 210.37 244.86 193.29 242.23 209.22Z" fill="black"/>
<path id="Vector_100" d="M249.44 199.21C249.437 205.918 246.771 212.351 242.026 217.093C237.282 221.836 230.848 224.5 224.14 224.5C219.139 224.498 214.25 223.013 210.092 220.233C205.935 217.453 202.695 213.502 200.782 208.881C198.87 204.26 198.37 199.175 199.347 194.27C200.324 189.365 202.734 184.86 206.271 181.324C209.808 177.788 214.314 175.38 219.22 174.405C224.125 173.43 229.21 173.932 233.83 175.846C238.451 177.76 242.4 181.002 245.179 185.161C247.957 189.319 249.44 194.209 249.44 199.21Z" fill="#EBC9A9"/>
<path id="Vector_101" opacity="0.1" d="M283.86 389.03C277.57 404.03 237.05 404.33 237.05 404.33V387.99L234.6 387.83C235.66 392.51 233.11 403.92 233.11 403.92C201.11 408.44 193.29 390.21 193.29 390.21L194.4 383.97L219.4 386.19C219.4 386.19 280.05 382.11 282.77 385.5C283.327 386.608 283.695 387.801 283.86 389.03Z" fill="black"/>
<path id="Vector_102" d="M237.05 402.36V386.02L234.6 385.86C235.66 390.54 233.11 401.95 233.11 401.95C209.01 405.35 198.63 395.86 194.97 390.95C194.316 390.105 193.753 389.193 193.29 388.23L203.06 333.23L205.36 252.23L208.89 238.03L209.7 231.21V231.13H209.79L212.28 232.2L227.19 238.65L244.13 225.86L244.37 225.67L245.22 225.04L246.62 226.16L250.1 228.95L261.27 301.06C261.27 301.06 280.64 356.58 284.27 378.99C284.41 379.88 284.53 380.71 284.62 381.5C286.98 401.98 237.05 402.36 237.05 402.36Z" fill="#E1E7EF"/>
<path id="Vector_103" d="M229 241.71C229.795 241.71 230.44 241.065 230.44 240.27C230.44 239.475 229.795 238.83 229 238.83C228.205 238.83 227.56 239.475 227.56 240.27C227.56 241.065 228.205 241.71 229 241.71Z" fill="#67647E"/>
<path id="Vector_104" d="M229.66 254.84C230.455 254.84 231.1 254.195 231.1 253.4C231.1 252.605 230.455 251.96 229.66 251.96C228.865 251.96 228.22 252.605 228.22 253.4C228.22 254.195 228.865 254.84 229.66 254.84Z" fill="#67647E"/>
<path id="Vector_105" d="M231.1 276.11C231.895 276.11 232.54 275.465 232.54 274.67C232.54 273.875 231.895 273.23 231.1 273.23C230.305 273.23 229.66 273.875 229.66 274.67C229.66 275.465 230.305 276.11 231.1 276.11Z" fill="#67647E"/>
<path id="Vector_106" d="M233.48 299.02C234.275 299.02 234.92 298.375 234.92 297.58C234.92 296.785 234.275 296.14 233.48 296.14C232.685 296.14 232.04 296.785 232.04 297.58C232.04 298.375 232.685 299.02 233.48 299.02Z" fill="#67647E"/>
<path id="Vector_107" d="M234.92 320.54C235.715 320.54 236.36 319.895 236.36 319.1C236.36 318.305 235.715 317.66 234.92 317.66C234.125 317.66 233.48 318.305 233.48 319.1C233.48 319.895 234.125 320.54 234.92 320.54Z" fill="#67647E"/>
<path id="Vector_108" d="M236.36 343.45C237.155 343.45 237.8 342.805 237.8 342.01C237.8 341.215 237.155 340.57 236.36 340.57C235.565 340.57 234.92 341.215 234.92 342.01C234.92 342.805 235.565 343.45 236.36 343.45Z" fill="#67647E"/>
<path id="Vector_109" d="M235.79 366.11C236.585 366.11 237.23 365.465 237.23 364.67C237.23 363.875 236.585 363.23 235.79 363.23C234.995 363.23 234.35 363.875 234.35 364.67C234.35 365.465 234.995 366.11 235.79 366.11Z" fill="#67647E"/>
<path id="Vector_110" opacity="0.1" d="M210.66 341.22C210.66 341.22 209.05 362.29 206.1 368.42C203.15 374.55 201.83 391.74 201.83 391.74L194.97 390.96C194.316 390.115 193.753 389.203 193.29 388.24L203.06 333.24L205.36 252.24L208.89 238.04L209.7 231.22H209.8C210.18 231.035 210.597 230.939 211.02 230.939C211.443 230.939 211.86 231.035 212.24 231.22L212.57 231.39C212.47 231.67 212.37 231.96 212.29 232.25C209.61 240.63 208.61 256.07 208.61 256.07C208.61 256.07 212.45 284.32 212.88 297.46C213.31 310.6 210.66 341.22 210.66 341.22Z" fill="black"/>
<path id="Vector_111" opacity="0.1" d="M193.79 387.69C193.712 387.866 193.622 388.037 193.52 388.2C190.86 392.7 184.12 395.56 182.07 396.34L181.46 395.25L182.89 388.57L190.42 385.5C191.611 386.121 192.739 386.854 193.79 387.69Z" fill="black"/>
<path id="Vector_112" d="M175.55 280.17L169.31 283.9L163.62 309.19C163.62 309.19 156.5 330.65 161.97 345.97C167.44 361.29 170.62 370.06 170.62 370.06C170.62 370.06 172.81 387.47 176.1 388.89C179.39 390.31 180.81 391.08 180.81 391.08L181.46 395.24C181.46 395.24 190.37 392.24 193.53 386.89C196.69 381.54 191.21 368.31 191.21 368.31C191.21 368.31 186.5 357.03 187.7 351.78C188.9 346.53 185.3 332.78 185.3 332.4C185.3 332.02 184.97 324.73 187.59 319.1C190.21 313.47 188.47 311.05 188.47 311.05L186.83 294.95L175.55 280.17Z" fill="#303D5C"/>
<path id="Vector_113" opacity="0.1" d="M284.38 384.3C284.38 384.3 267.85 390.54 262.59 385.06C257.33 379.58 257.88 353.97 257.88 353.97C257.88 353.97 252.88 306.67 249.67 298.9C246.46 291.13 248.14 235.06 248.14 235.06C248.14 235.06 246 227.81 244.14 225.92C244.026 225.795 243.895 225.688 243.75 225.6L244.38 225.73L246.63 226.22L250.11 229.01L261.28 301.12C261.28 301.12 280.65 356.64 284.28 379.05L284.38 384.3Z" fill="black"/>
<path id="Vector_114" opacity="0.1" d="M303.44 385.94H303.25C301.18 386.21 282.8 388.43 282.73 384.6C282.728 384.159 282.752 383.718 282.8 383.28L299.8 381.54L303.17 385C303.23 385.22 303.28 385.42 303.33 385.57L303.44 385.94Z" fill="black"/>
<path id="Vector_115" d="M285.81 254.84L297.89 261.14C297.89 261.14 307.89 287.14 309.56 298.35C309.56 298.35 317.01 328.26 311.86 340.57C306.71 352.88 307.16 377.29 307.16 377.29C307.16 377.29 304.16 381.78 302.99 380.57C301.82 379.36 303.43 385.28 303.43 385.28C303.43 385.28 282.8 388.02 282.71 383.97C282.62 379.92 287.44 360.54 287.44 360.54C287.44 360.54 288.75 314.44 286.89 307.22C285.03 300 285.81 254.84 285.81 254.84Z" fill="#303D5C"/>
<path id="Vector_116" opacity="0.1" d="M249.78 303.93C249.78 303.93 243 320.57 240.78 321.67C238.56 322.77 241.21 327.14 241.21 327.14C241.21 327.14 253.62 309.84 249.78 303.93Z" fill="black"/>
<path id="Vector_117" opacity="0.1" d="M245.73 245.57C245.81 245.26 237.63 253.57 235.44 254.84C233.25 256.11 243.44 254.77 245.73 245.57Z" fill="black"/>
<path id="Vector_118" opacity="0.1" d="M222.96 302.63C222.96 302.63 210.48 310.7 212.12 313.89C213.76 317.08 222.96 302.63 222.96 302.63Z" fill="black"/>
<path id="Vector_119" opacity="0.1" d="M245.62 420.43C245.62 420.43 256.25 427.26 272.78 428.97L245.62 420.43Z" fill="black"/>
<path id="Vector_120" opacity="0.1" d="M220.11 436.85C220.11 436.85 229.97 449.22 234.46 449.55C238.95 449.88 220.11 436.85 220.11 436.85Z" fill="black"/>
<path id="Vector_121" opacity="0.1" d="M233.91 485.35C233.47 485.57 228.32 496.52 223.07 496.85C217.82 497.18 233.91 485.35 233.91 485.35Z" fill="black"/>
<path id="Vector_122" opacity="0.1" d="M279.56 509.33C279.56 509.33 289.33 507.14 291.5 514.15C291.5 514.15 290.84 511.96 279.56 509.33Z" fill="black"/>
<path id="Vector_123" opacity="0.1" d="M273 549.4C273 549.4 284.82 546.99 287.34 550.28C289.86 553.57 273 549.4 273 549.4Z" fill="black"/>
<path id="Vector_124" opacity="0.1" d="M239.53 554.99C239.53 555.1 227.53 557.4 227.96 558.93C228.39 560.46 240.81 560.24 241.24 557.83C241.323 557.531 241.345 557.218 241.303 556.911C241.261 556.603 241.157 556.307 240.997 556.042C240.837 555.776 240.624 555.545 240.372 555.364C240.12 555.184 239.833 555.056 239.53 554.99Z" fill="black"/>
<path id="Vector_125" opacity="0.1" d="M269.05 565.39C269.05 565.39 288.84 562.98 287.59 567.14C286.34 571.3 269.05 565.39 269.05 565.39Z" fill="black"/>
<path id="Vector_126" opacity="0.1" d="M165.44 321.63C165.55 321.96 178.44 323.71 180.22 327.87C180.22 327.87 167.52 321.96 165.55 321.96" fill="black"/>
<path id="Vector_127" opacity="0.1" d="M183.65 355.5C183.65 355.5 172.92 358.89 173.65 364.04C174.38 369.19 172.6 361.63 183.65 355.5Z" fill="black"/>
<path id="Vector_128" opacity="0.1" d="M178.65 381.56C178.65 381.56 182.56 376.19 186.28 377.18C190 378.17 178.65 381.56 178.65 381.56Z" fill="black"/>
<path id="Vector_129" d="M237.965 171.593C235.185 165.753 229.145 162.063 222.965 160.263C218.225 158.883 213.075 158.433 208.365 159.943C205.732 160.933 203.18 162.131 200.735 163.523C196.045 165.893 190.885 167.773 187.355 171.663C186.899 172.069 186.543 172.573 186.312 173.138C186.082 173.704 185.983 174.314 186.025 174.923C186.336 175.778 186.781 176.578 187.345 177.293C188.345 179.073 188.085 181.293 187.415 183.293C186.745 185.293 185.715 187.023 185.235 189.013C184.755 191.003 184.945 193.323 186.415 194.743C187.121 195.306 187.855 195.834 188.615 196.323C189.421 197.019 190.13 197.819 190.725 198.703L194.895 204.413C196.853 206.933 198.602 209.608 200.125 212.413C201.021 214.548 202.105 216.6 203.365 218.543C204.755 220.393 206.925 221.883 209.235 221.673C209.412 221.677 209.588 221.64 209.748 221.563C209.908 221.487 210.048 221.374 210.155 221.233C210.241 221.052 210.282 220.853 210.275 220.653C210.366 217.579 209.985 214.51 209.145 211.553C208.674 210.185 208.319 208.78 208.085 207.353C207.907 205.508 208.283 203.653 209.165 202.023C210.046 200.393 211.394 199.063 213.035 198.203C216.755 196.333 221.455 197.123 225.035 194.973C227.795 193.303 229.315 190.203 230.675 187.273C232.165 184.063 232.995 181.273 236.115 179.483C239.235 177.693 239.505 174.663 237.965 171.593Z" fill="#2F2E41"/>
<path id="Vector_130" opacity="0.1" d="M227.95 585.23C227.95 585.23 231.8 590.16 230.81 592.95C229.82 595.74 227.95 585.23 227.95 585.23Z" fill="black"/>
<path id="Vector_131" opacity="0.1" d="M280.29 597.55C280.29 597.55 281.15 590.94 284.6 590.88C288.05 590.82 288.21 590.53 290.84 591.53C293.47 592.53 295.94 594.12 295.16 594.36C294.38 594.6 290.62 590.58 286.79 592.63C284.393 593.942 282.203 595.6 280.29 597.55Z" fill="black"/>
<path id="Vector_132" opacity="0.1" d="M216.44 246.96L227.24 239.36C227.24 239.36 211.39 230 209.5 231.31C207.61 232.62 206.32 244.46 206.32 244.46L216.44 246.96Z" fill="black"/>
<path id="Vector_133" d="M216.36 246.46L227.2 238.7C227.2 238.7 211.35 229.34 209.46 230.7C207.57 232.06 206.28 244.5 206.28 244.5L216.36 246.46Z" fill="#E1E7EF"/>
<path id="Vector_134" opacity="0.03" d="M216.36 246.46L227.2 238.7C227.2 238.7 211.35 229.34 209.46 230.7C207.57 232.06 206.28 244.5 206.28 244.5L216.36 246.46Z" fill="black"/>
<path id="Vector_135" d="M211.26 230.75L210.93 230.58C210.451 230.343 209.915 230.247 209.383 230.303C208.852 230.36 208.348 230.567 207.93 230.9L175.44 257.26C175.44 257.26 168.38 267.03 169.36 283.9L188.44 311.05C188.44 311.05 190.63 301.85 193.26 303.6C193.26 303.6 196.98 350.68 193.26 357.47C189.54 364.26 187.92 389.63 187.92 389.63L200.51 391.05C200.51 391.05 201.83 373.86 204.78 367.73C207.73 361.6 209.35 340.54 209.35 340.54C209.35 340.54 212.01 309.92 211.57 296.78C211.13 283.64 207.3 255.4 207.3 255.4C207.3 255.4 208.37 238.87 211.26 230.75Z" fill="#303D5C"/>
<path id="Vector_136" opacity="0.1" d="M243.63 242.15L230.12 237.15C230.12 237.15 247.32 218.32 249.46 228.77L243.63 242.15Z" fill="black"/>
<path id="Vector_137" d="M243.63 241.5L230.12 236.5C230.12 236.5 247.32 217.63 249.44 228.11L243.63 241.5Z" fill="#E1E7EF"/>
<path id="Vector_138" opacity="0.03" d="M243.63 241.5L230.12 236.5C230.12 236.5 247.32 217.63 249.44 228.11L243.63 241.5Z" fill="black"/>
<path id="Vector_139" opacity="0.1" d="M243.19 225.48C243.287 225.462 243.386 225.463 243.482 225.484C243.578 225.504 243.669 225.544 243.75 225.6L243.19 225.48Z" fill="black"/>
<path id="Vector_140" d="M244.5 224.17L280.33 231.89C280.33 231.89 290.18 234.08 297.33 258.82C304.48 283.56 287.59 313.88 287.59 313.88L283.86 310.72L285.73 382.98C285.73 382.98 269.19 389.22 263.94 383.75C258.69 378.28 259.23 352.65 259.23 352.65C259.23 352.65 254.23 305.35 251.02 297.58C247.81 289.81 249.44 233.75 249.44 233.75C249.44 233.75 246.5 223.73 244.5 224.17Z" fill="#303D5C"/>
<path id="Vector_141" opacity="0.1" d="M277.27 270.21C276.76 270.68 276.17 292.54 278.36 309.21C279.705 319.347 281.78 329.373 284.57 339.21L281.32 272.53C281.32 272.53 278.8 268.79 277.27 270.21Z" fill="black"/>
<path id="Vector_142" opacity="0.1" d="M272.89 251.38C273.76 251.93 277.59 261.01 275.84 264.74C274.09 268.47 272.89 251.38 272.89 251.38Z" fill="black"/>
</g>
</g>
<defs>
<clipPath id="clip0">
<rect width="1086.87" height="645.26" fill="white"/>
</clipPath>
</defs>
</svg>
